<mxfile host="app.diagrams.net" modified="2024-06-11T09:31:21.863Z" agent="Mozilla/5.0 (Windows NT 10.0; Win64; x64) AppleWebKit/537.36 (KHTML, like Gecko) Chrome/125.0.0.0 Safari/537.36 Edg/125.0.0.0" etag="p20-UhrmJmr8bg7Y_u0x" version="24.5.2" type="github">
  <diagram name="Page-1" id="z5-CBBnIigoQPyKpzh3y">
    <mxGraphModel dx="2293" dy="1169" grid="0" gridSize="10" guides="1" tooltips="1" connect="1" arrows="1" fold="1" page="0" pageScale="1" pageWidth="850" pageHeight="1100" math="0" shadow="0">
      <root>
        <mxCell id="0" />
        <mxCell id="1" parent="0" />
        <UserObject label="" plantUmlData="{&#xa;  &quot;data&quot;: &quot;@startuml\npackage \&quot;Smart Irrigation System\&quot; {\n    package \&quot;Sensor Package\&quot; {\n        class MoistureSensor\n    }\n    package \&quot;Controller Package\&quot; {\n        class CentralController {\n            +processSensorData()\n            +sendCommands()\n            +updateDatabase()\n            +sendNotifications()\n        }\n    }\n    package \&quot;Valve Package\&quot; {\n        class WaterValve\n    }\n    package \&quot;Database Package\&quot; {\n        class CloudDatabase\n    }\n    package \&quot;Notification Package\&quot; {\n        class NotificationService\n    }\n    package \&quot;Mobile App Package\&quot; {\n        class MobileApp\n    }\n\n    MoistureSensor --&gt; CentralController : sends data\n    CentralController --&gt; WaterValve : sends commands\n    CentralController --&gt; CloudDatabase : updates data\n    CentralController --&gt; NotificationService : sends notifications\n    NotificationService --&gt; MobileApp : updates\n}\n@enduml\n&quot;,&#xa;  &quot;format&quot;: &quot;svg&quot;&#xa;}" id="p0RDuZN4yrUeEtZU9wO6-1">
          <mxCell style="shape=image;noLabel=1;verticalAlign=top;aspect=fixed;imageAspect=0;image=data:image/svg+xml,PD94bWwgdmVyc2lvbj0iMS4wIiBlbmNvZGluZz0idXMtYXNjaWkiIHN0YW5kYWxvbmU9Im5vIj8+PHN2ZyB4bWxucz0iaHR0cDovL3d3dy53My5vcmcvMjAwMC9zdmciIHhtbG5zOnhsaW5rPSJodHRwOi8vd3d3LnczLm9yZy8xOTk5L3hsaW5rIiBjb250ZW50U3R5bGVUeXBlPSJ0ZXh0L2NzcyIgaGVpZ2h0PSI2NjdweCIgcHJlc2VydmVBc3BlY3RSYXRpbz0ibm9uZSIgc3R5bGU9IndpZHRoOjU5N3B4O2hlaWdodDo2NjdweDtiYWNrZ3JvdW5kOiNGRkZGRkY7IiB2ZXJzaW9uPSIxLjEiIHZpZXdCb3g9IjAgMCA1OTcgNjY3IiB3aWR0aD0iNTk3cHgiIHpvb21BbmRQYW49Im1hZ25pZnkiPjxkZWZzLz48Zz48IS0tY2x1c3RlciBTbWFydCBJcnJpZ2F0aW9uIFN5c3RlbS0tPjxnIGlkPSJjbHVzdGVyX1NtYXJ0IElycmlnYXRpb24gU3lzdGVtIj48cGF0aCBkPSJNOC41LDYgTDE3Mi41LDYgQTMuNzUsMy43NSAwIDAgMSAxNzUsOC41IEwxODIsMjYuOTg0NCBMNTg3LjUsMjYuOTg0NCBBMi41LDIuNSAwIDAgMSA1OTAsMjkuNDg0NCBMNTkwLDY1Ny41IEEyLjUsMi41IDAgMCAxIDU4Ny41LDY2MCBMOC41LDY2MCBBMi41LDIuNSAwIDAgMSA2LDY1Ny41IEw2LDguNSBBMi41LDIuNSAwIDAgMSA4LjUsNiAiIGZpbGw9Im5vbmUiIHN0eWxlPSJzdHJva2U6IzAwMDAwMDtzdHJva2Utd2lkdGg6MS41OyIvPjxsaW5lIHN0eWxlPSJzdHJva2U6IzAwMDAwMDtzdHJva2Utd2lkdGg6MS41OyIgeDE9IjYiIHgyPSIxODIiIHkxPSIyNi45ODQ0IiB5Mj0iMjYuOTg0NCIvPjx0ZXh0IGZpbGw9IiMwMDAwMDAiIGZvbnQtZmFtaWx5PSJzYW5zLXNlcmlmIiBmb250LXNpemU9IjE0IiBmb250LXdlaWdodD0iYm9sZCIgbGVuZ3RoQWRqdXN0PSJzcGFjaW5nIiB0ZXh0TGVuZ3RoPSIxNjMiIHg9IjEwIiB5PSIyMS4yMzQ0Ij5TbWFydCBJcnJpZ2F0aW9uIFN5c3RlbTwvdGV4dD48L2c+PCEtLWNsdXN0ZXIgU2Vuc29yIFBhY2thZ2UtLT48ZyBpZD0iY2x1c3Rlcl9TZW5zb3IgUGFja2FnZSI+PHBhdGggZD0iTTE4Ny41LDQ3IEwyODYuNSw0NyBBMy43NSwzLjc1IDAgMCAxIDI4OSw0OS41IEwyOTYsNjcuOTg0NCBMMzQ0LjUsNjcuOTg0NCBBMi41LDIuNSAwIDAgMSAzNDcsNzAuNDg0NCBMMzQ3LDE0MS41IEEyLjUsMi41IDAgMCAxIDM0NC41LDE0NCBMMTg3LjUsMTQ0IEEyLjUsMi41IDAgMCAxIDE4NSwxNDEuNSBMMTg1LDQ5LjUgQTIuNSwyLjUgMCAwIDEgMTg3LjUsNDcgIiBmaWxsPSJub25lIiBzdHlsZT0ic3Ryb2tlOiMwMDAwMDA7c3Ryb2tlLXdpZHRoOjEuNTsiLz48bGluZSBzdHlsZT0ic3Ryb2tlOiMwMDAwMDA7c3Ryb2tlLXdpZHRoOjEuNTsiIHgxPSIxODUiIHgyPSIyOTYiIHkxPSI2Ny45ODQ0IiB5Mj0iNjcuOTg0NCIvPjx0ZXh0IGZpbGw9IiMwMDAwMDAiIGZvbnQtZmFtaWx5PSJzYW5zLXNlcmlmIiBmb250LXNpemU9IjE0IiBmb250LXdlaWdodD0iYm9sZCIgbGVuZ3RoQWRqdXN0PSJzcGFjaW5nIiB0ZXh0TGVuZ3RoPSI5OCIgeD0iMTg5IiB5PSI2Mi4yMzQ0Ij5TZW5zb3IgUGFja2FnZTwvdGV4dD48L2c+PCEtLWNsdXN0ZXIgQ29udHJvbGxlciBQYWNrYWdlLS0+PGcgaWQ9ImNsdXN0ZXJfQ29udHJvbGxlciBQYWNrYWdlIj48cGF0aCBkPSJNMTcxLjUsMTkxIEwyOTguNSwxOTEgQTMuNzUsMy43NSAwIDAgMSAzMDEsMTkzLjUgTDMwOCwyMTEuOTg0NCBMMzYwLjUsMjExLjk4NDQgQTIuNSwyLjUgMCAwIDEgMzYzLDIxNC40ODQ0IEwzNjMsMzQ1LjUgQTIuNSwyLjUgMCAwIDEgMzYwLjUsMzQ4IEwxNzEuNSwzNDggQTIuNSwyLjUgMCAwIDEgMTY5LDM0NS41IEwxNjksMTkzLjUgQTIuNSwyLjUgMCAwIDEgMTcxLjUsMTkxICIgZmlsbD0ibm9uZSIgc3R5bGU9InN0cm9rZTojMDAwMDAwO3N0cm9rZS13aWR0aDoxLjU7Ii8+PGxpbmUgc3R5bGU9InN0cm9rZTojMDAwMDAwO3N0cm9rZS13aWR0aDoxLjU7IiB4MT0iMTY5IiB4Mj0iMzA4IiB5MT0iMjExLjk4NDQiIHkyPSIyMTEuOTg0NCIvPjx0ZXh0IGZpbGw9IiMwMDAwMDAiIGZvbnQtZmFtaWx5PSJzYW5zLXNlcmlmIiBmb250LXNpemU9IjE0IiBmb250LXdlaWdodD0iYm9sZCIgbGVuZ3RoQWRqdXN0PSJzcGFjaW5nIiB0ZXh0TGVuZ3RoPSIxMjYiIHg9IjE3MyIgeT0iMjA2LjIzNDQiPkNvbnRyb2xsZXIgUGFja2FnZTwvdGV4dD48L2c+PCEtLWNsdXN0ZXIgVmFsdmUgUGFja2FnZS0tPjxnIGlkPSJjbHVzdGVyX1ZhbHZlIFBhY2thZ2UiPjxwYXRoIGQ9Ik0zMi41LDM5NSBMMTI0LjUsMzk1IEEzLjc1LDMuNzUgMCAwIDEgMTI3LDM5Ny41IEwxMzQsNDE1Ljk4NDQgTDE2MS41LDQxNS45ODQ0IEEyLjUsMi41IDAgMCAxIDE2NCw0MTguNDg0NCBMMTY0LDQ4OS41IEEyLjUsMi41IDAgMCAxIDE2MS41LDQ5MiBMMzIuNSw0OTIgQTIuNSwyLjUgMCAwIDEgMzAsNDg5LjUgTDMwLDM5Ny41IEEyLjUsMi41IDAgMCAxIDMyLjUsMzk1ICIgZmlsbD0ibm9uZSIgc3R5bGU9InN0cm9rZTojMDAwMDAwO3N0cm9rZS13aWR0aDoxLjU7Ii8+PGxpbmUgc3R5bGU9InN0cm9rZTojMDAwMDAwO3N0cm9rZS13aWR0aDoxLjU7IiB4MT0iMzAiIHgyPSIxMzQiIHkxPSI0MTUuOTg0NCIgeTI9IjQxNS45ODQ0Ii8+PHRleHQgZmlsbD0iIzAwMDAwMCIgZm9udC1mYW1pbHk9InNhbnMtc2VyaWYiIGZvbnQtc2l6ZT0iMTQiIGZvbnQtd2VpZ2h0PSJib2xkIiBsZW5ndGhBZGp1c3Q9InNwYWNpbmciIHRleHRMZW5ndGg9IjkxIiB4PSIzNCIgeT0iNDEwLjIzNDQiPlZhbHZlIFBhY2thZ2U8L3RleHQ+PC9nPjwhLS1jbHVzdGVyIERhdGFiYXNlIFBhY2thZ2UtLT48ZyBpZD0iY2x1c3Rlcl9EYXRhYmFzZSBQYWNrYWdlIj48cGF0aCBkPSJNMTkwLjUsMzk1IEwzMDMuNSwzOTUgQTMuNzUsMy43NSAwIDAgMSAzMDYsMzk3LjUgTDMxMyw0MTUuOTg0NCBMMzQxLjUsNDE1Ljk4NDQgQTIuNSwyLjUgMCAwIDEgMzQ0LDQxOC40ODQ0IEwzNDQsNDg5LjUgQTIuNSwyLjUgMCAwIDEgMzQxLjUsNDkyIEwxOTAuNSw0OTIgQTIuNSwyLjUgMCAwIDEgMTg4LDQ4OS41IEwxODgsMzk3LjUgQTIuNSwyLjUgMCAwIDEgMTkwLjUsMzk1ICIgZmlsbD0ibm9uZSIgc3R5bGU9InN0cm9rZTojMDAwMDAwO3N0cm9rZS13aWR0aDoxLjU7Ii8+PGxpbmUgc3R5bGU9InN0cm9rZTojMDAwMDAwO3N0cm9rZS13aWR0aDoxLjU7IiB4MT0iMTg4IiB4Mj0iMzEzIiB5MT0iNDE1Ljk4NDQiIHkyPSI0MTUuOTg0NCIvPjx0ZXh0IGZpbGw9IiMwMDAwMDAiIGZvbnQtZmFtaWx5PSJzYW5zLXNlcmlmIiBmb250LXNpemU9IjE0IiBmb250LXdlaWdodD0iYm9sZCIgbGVuZ3RoQWRqdXN0PSJzcGFjaW5nIiB0ZXh0TGVuZ3RoPSIxMTIiIHg9IjE5MiIgeT0iNDEwLjIzNDQiPkRhdGFiYXNlIFBhY2thZ2U8L3RleHQ+PC9nPjwhLS1jbHVzdGVyIE5vdGlmaWNhdGlvbiBQYWNrYWdlLS0+PGcgaWQ9ImNsdXN0ZXJfTm90aWZpY2F0aW9uIFBhY2thZ2UiPjxwYXRoIGQ9Ik0zNzAuNSwzOTUgTDUxMS41LDM5NSBBMy43NSwzLjc1IDAgMCAxIDUxNCwzOTcuNSBMNTIxLDQxNS45ODQ0IEw1NjMuNSw0MTUuOTg0NCBBMi41LDIuNSAwIDAgMSA1NjYsNDE4LjQ4NDQgTDU2Niw0ODkuNSBBMi41LDIuNSAwIDAgMSA1NjMuNSw0OTIgTDM3MC41LDQ5MiBBMi41LDIuNSAwIDAgMSAzNjgsNDg5LjUgTDM2OCwzOTcuNSBBMi41LDIuNSAwIDAgMSAzNzAuNSwzOTUgIiBmaWxsPSJub25lIiBzdHlsZT0ic3Ryb2tlOiMwMDAwMDA7c3Ryb2tlLXdpZHRoOjEuNTsiLz48bGluZSBzdHlsZT0ic3Ryb2tlOiMwMDAwMDA7c3Ryb2tlLXdpZHRoOjEuNTsiIHgxPSIzNjgiIHgyPSI1MjEiIHkxPSI0MTUuOTg0NCIgeTI9IjQxNS45ODQ0Ii8+PHRleHQgZmlsbD0iIzAwMDAwMCIgZm9udC1mYW1pbHk9InNhbnMtc2VyaWYiIGZvbnQtc2l6ZT0iMTQiIGZvbnQtd2VpZ2h0PSJib2xkIiBsZW5ndGhBZGp1c3Q9InNwYWNpbmciIHRleHRMZW5ndGg9IjE0MCIgeD0iMzcyIiB5PSI0MTAuMjM0NCI+Tm90aWZpY2F0aW9uIFBhY2thZ2U8L3RleHQ+PC9nPjwhLS1jbHVzdGVyIE1vYmlsZSBBcHAgUGFja2FnZS0tPjxnIGlkPSJjbHVzdGVyX01vYmlsZSBBcHAgUGFja2FnZSI+PHBhdGggZD0iTTM5OC41LDUzOSBMNTI1LjUsNTM5IEEzLjc1LDMuNzUgMCAwIDEgNTI4LDU0MS41IEw1MzUsNTU5Ljk4NDQgTDUzNS41LDU1OS45ODQ0IEEyLjUsMi41IDAgMCAxIDUzOCw1NjIuNDg0NCBMNTM4LDYzMy41IEEyLjUsMi41IDAgMCAxIDUzNS41LDYzNiBMMzk4LjUsNjM2IEEyLjUsMi41IDAgMCAxIDM5Niw2MzMuNSBMMzk2LDU0MS41IEEyLjUsMi41IDAgMCAxIDM5OC41LDUzOSAiIGZpbGw9Im5vbmUiIHN0eWxlPSJzdHJva2U6IzAwMDAwMDtzdHJva2Utd2lkdGg6MS41OyIvPjxsaW5lIHN0eWxlPSJzdHJva2U6IzAwMDAwMDtzdHJva2Utd2lkdGg6MS41OyIgeDE9IjM5NiIgeDI9IjUzNSIgeTE9IjU1OS45ODQ0IiB5Mj0iNTU5Ljk4NDQiLz48dGV4dCBmaWxsPSIjMDAwMDAwIiBmb250LWZhbWlseT0ic2Fucy1zZXJpZiIgZm9udC1zaXplPSIxNCIgZm9udC13ZWlnaHQ9ImJvbGQiIGxlbmd0aEFkanVzdD0ic3BhY2luZyIgdGV4dExlbmd0aD0iMTI2IiB4PSI0MDAiIHk9IjU1NC4yMzQ0Ij5Nb2JpbGUgQXBwIFBhY2thZ2U8L3RleHQ+PC9nPjwhLS1jbGFzcyBNb2lzdHVyZVNlbnNvci0tPjxnIGlkPSJlbGVtX01vaXN0dXJlU2Vuc29yIj48cmVjdCBjb2RlTGluZT0iMyIgZmlsbD0iI0YxRjFGMSIgaGVpZ2h0PSI0OCIgaWQ9Ik1vaXN0dXJlU2Vuc29yIiByeD0iMi41IiByeT0iMi41IiBzdHlsZT0ic3Ryb2tlOiMxODE4MTg7c3Ryb2tlLXdpZHRoOjAuNTsiIHdpZHRoPSIxMzAiIHg9IjIwMSIgeT0iODAiLz48ZWxsaXBzZSBjeD0iMjE2IiBjeT0iOTYiIGZpbGw9IiNBREQxQjIiIHJ4PSIxMSIgcnk9IjExIiBzdHlsZT0ic3Ryb2tlOiMxODE4MTg7c3Ryb2tlLXdpZHRoOjEuMDsiLz48cGF0aCBkPSJNMjEzLjYyNSwxMDAuMjUgTDIxMy42MjUsMTAyIEwyMTguNTYyNSwxMDIgTDIxOC41NjI1LDEwMC4yNSBMMjEzLjYyNSwxMDAuMjUgWiBNMjE0LjMxMjUsMTAwLjkzNzUgUTIxNC4zMTI1LDEwMC45Mzc1IDIxNC4zMTI1LDkxLjc1IEwyMTIuNTYyNSw5MS43NSBRMjEyLjU2MjUsOTEuNzUgMjEyLjU2MjUsMTAwLjkzNzUgTDIxNC4zMTI1LDEwMC45Mzc1IFogTTIxNy44NzUsMTAwLjkzNzUgTDIxOS42MjUsMTAwLjkzNzUgUTIxOS42MjUsMTAwLjkzNzUgMjE5LjYyNSw5OC4xMjUgTDIxNy44NzUsOTguMTI1IFEyMTcuODc1LDk4LjEyNSAyMTcuODc1LDEwMC45Mzc1IFogTTIxNy44NzUsOTEuNzUgUTIxNy44NzUsOTEuNzUgMjE3Ljg3NSw5NC41NjI1IEwyMTkuNjI1LDk0LjU2MjUgUTIxOS42MjUsOTQuNTYyNSAyMTkuNjI1LDkxLjc1IEwyMTcuODc1LDkxLjc1IFogTTIxMy42MjUsOTIuNDM3NSBMMjE4LjU2MjUsOTIuNDM3NSBMMjE4LjU2MjUsOTAuNjg3NSBMMjEzLjYyNSw5MC42ODc1IEwyMTMuNjI1LDkyLjQzNzUgWiAiIGZpbGw9IiMwMDAwMDAiLz48dGV4dCBmaWxsPSIjMDAwMDAwIiBmb250LWZhbWlseT0ic2Fucy1zZXJpZiIgZm9udC1zaXplPSIxNCIgbGVuZ3RoQWRqdXN0PSJzcGFjaW5nIiB0ZXh0TGVuZ3RoPSI5OCIgeD0iMjMwIiB5PSIxMDEuNzQyMiI+TW9pc3R1cmVTZW5zb3I8L3RleHQ+PGxpbmUgc3R5bGU9InN0cm9rZTojMTgxODE4O3N0cm9rZS13aWR0aDowLjU7IiB4MT0iMjAyIiB4Mj0iMzMwIiB5MT0iMTEyIiB5Mj0iMTEyIi8+PGxpbmUgc3R5bGU9InN0cm9rZTojMTgxODE4O3N0cm9rZS13aWR0aDowLjU7IiB4MT0iMjAyIiB4Mj0iMzMwIiB5MT0iMTIwIiB5Mj0iMTIwIi8+PC9nPjwhLS1jbGFzcyBDZW50cmFsQ29udHJvbGxlci0tPjxnIGlkPSJlbGVtX0NlbnRyYWxDb250cm9sbGVyIj48cmVjdCBjb2RlTGluZT0iNiIgZmlsbD0iI0YxRjFGMSIgaGVpZ2h0PSIxMDcuOTM3NSIgaWQ9IkNlbnRyYWxDb250cm9sbGVyIiByeD0iMi41IiByeT0iMi41IiBzdHlsZT0ic3Ryb2tlOiMxODE4MTg7c3Ryb2tlLXdpZHRoOjAuNTsiIHdpZHRoPSIxNjEiIHg9IjE4NS41IiB5PSIyMjQiLz48ZWxsaXBzZSBjeD0iMjA1IiBjeT0iMjQwIiBmaWxsPSIjQUREMUIyIiByeD0iMTEiIHJ5PSIxMSIgc3R5bGU9InN0cm9rZTojMTgxODE4O3N0cm9rZS13aWR0aDoxLjA7Ii8+PHBhdGggZD0iTTIwMi42MjUsMjQ0LjI1IEwyMDIuNjI1LDI0NiBMMjA3LjU2MjUsMjQ2IEwyMDcuNTYyNSwyNDQuMjUgTDIwMi42MjUsMjQ0LjI1IFogTTIwMy4zMTI1LDI0NC45Mzc1IFEyMDMuMzEyNSwyNDQuOTM3NSAyMDMuMzEyNSwyMzUuNzUgTDIwMS41NjI1LDIzNS43NSBRMjAxLjU2MjUsMjM1Ljc1IDIwMS41NjI1LDI0NC45Mzc1IEwyMDMuMzEyNSwyNDQuOTM3NSBaIE0yMDYuODc1LDI0NC45Mzc1IEwyMDguNjI1LDI0NC45Mzc1IFEyMDguNjI1LDI0NC45Mzc1IDIwOC42MjUsMjQyLjEyNSBMMjA2Ljg3NSwyNDIuMTI1IFEyMDYuODc1LDI0Mi4xMjUgMjA2Ljg3NSwyNDQuOTM3NSBaIE0yMDYuODc1LDIzNS43NSBRMjA2Ljg3NSwyMzUuNzUgMjA2Ljg3NSwyMzguNTYyNSBMMjA4LjYyNSwyMzguNTYyNSBRMjA4LjYyNSwyMzguNTYyNSAyMDguNjI1LDIzNS43NSBMMjA2Ljg3NSwyMzUuNzUgWiBNMjAyLjYyNSwyMzYuNDM3NSBMMjA3LjU2MjUsMjM2LjQzNzUgTDIwNy41NjI1LDIzNC42ODc1IEwyMDIuNjI1LDIzNC42ODc1IEwyMDIuNjI1LDIzNi40Mzc1IFogIiBmaWxsPSIjMDAwMDAwIi8+PHRleHQgZmlsbD0iIzAwMDAwMCIgZm9udC1mYW1pbHk9InNhbnMtc2VyaWYiIGZvbnQtc2l6ZT0iMTQiIGxlbmd0aEFkanVzdD0ic3BhY2luZyIgdGV4dExlbmd0aD0iMTE5IiB4PSIyMjAiIHk9IjI0NS43NDIyIj5DZW50cmFsQ29udHJvbGxlcjwvdGV4dD48bGluZSBzdHlsZT0ic3Ryb2tlOiMxODE4MTg7c3Ryb2tlLXdpZHRoOjAuNTsiIHgxPSIxODYuNSIgeDI9IjM0NS41IiB5MT0iMjU2IiB5Mj0iMjU2Ii8+PGxpbmUgc3R5bGU9InN0cm9rZTojMTgxODE4O3N0cm9rZS13aWR0aDowLjU7IiB4MT0iMTg2LjUiIHgyPSIzNDUuNSIgeTE9IjI2NCIgeTI9IjI2NCIvPjxlbGxpcHNlIGN4PSIxOTYuNSIgY3k9IjI3Ni45OTIyIiBmaWxsPSIjODRCRTg0IiByeD0iMyIgcnk9IjMiIHN0eWxlPSJzdHJva2U6IzAzODA0ODtzdHJva2Utd2lkdGg6MS4wOyIvPjx0ZXh0IGZpbGw9IiMwMDAwMDAiIGZvbnQtZmFtaWx5PSJzYW5zLXNlcmlmIiBmb250LXNpemU9IjE0IiBsZW5ndGhBZGp1c3Q9InNwYWNpbmciIHRleHRMZW5ndGg9IjEzNSIgeD0iMjA1LjUiIHk9IjI4MS4yMzQ0Ij5wcm9jZXNzU2Vuc29yRGF0YSgpPC90ZXh0PjxlbGxpcHNlIGN4PSIxOTYuNSIgY3k9IjI5MS45NzY2IiBmaWxsPSIjODRCRTg0IiByeD0iMyIgcnk9IjMiIHN0eWxlPSJzdHJva2U6IzAzODA0ODtzdHJva2Utd2lkdGg6MS4wOyIvPjx0ZXh0IGZpbGw9IiMwMDAwMDAiIGZvbnQtZmFtaWx5PSJzYW5zLXNlcmlmIiBmb250LXNpemU9IjE0IiBsZW5ndGhBZGp1c3Q9InNwYWNpbmciIHRleHRMZW5ndGg9IjEwMiIgeD0iMjA1LjUiIHk9IjI5Ni4yMTg4Ij5zZW5kQ29tbWFuZHMoKTwvdGV4dD48ZWxsaXBzZSBjeD0iMTk2LjUiIGN5PSIzMDYuOTYwOSIgZmlsbD0iIzg0QkU4NCIgcng9IjMiIHJ5PSIzIiBzdHlsZT0ic3Ryb2tlOiMwMzgwNDg7c3Ryb2tlLXdpZHRoOjEuMDsiLz48dGV4dCBmaWxsPSIjMDAwMDAwIiBmb250LWZhbWlseT0ic2Fucy1zZXJpZiIgZm9udC1zaXplPSIxNCIgbGVuZ3RoQWRqdXN0PSJzcGFjaW5nIiB0ZXh0TGVuZ3RoPSIxMTQiIHg9IjIwNS41IiB5PSIzMTEuMjAzMSI+dXBkYXRlRGF0YWJhc2UoKTwvdGV4dD48ZWxsaXBzZSBjeD0iMTk2LjUiIGN5PSIzMjEuOTQ1MyIgZmlsbD0iIzg0QkU4NCIgcng9IjMiIHJ5PSIzIiBzdHlsZT0ic3Ryb2tlOiMwMzgwNDg7c3Ryb2tlLXdpZHRoOjEuMDsiLz48dGV4dCBmaWxsPSIjMDAwMDAwIiBmb250LWZhbWlseT0ic2Fucy1zZXJpZiIgZm9udC1zaXplPSIxNCIgbGVuZ3RoQWRqdXN0PSJzcGFjaW5nIiB0ZXh0TGVuZ3RoPSIxMzUiIHg9IjIwNS41IiB5PSIzMjYuMTg3NSI+c2VuZE5vdGlmaWNhdGlvbnMoKTwvdGV4dD48L2c+PCEtLWNsYXNzIFdhdGVyVmFsdmUtLT48ZyBpZD0iZWxlbV9XYXRlclZhbHZlIj48cmVjdCBjb2RlTGluZT0iMTQiIGZpbGw9IiNGMUYxRjEiIGhlaWdodD0iNDgiIGlkPSJXYXRlclZhbHZlIiByeD0iMi41IiByeT0iMi41IiBzdHlsZT0ic3Ryb2tlOiMxODE4MTg7c3Ryb2tlLXdpZHRoOjAuNTsiIHdpZHRoPSIxMDIiIHg9IjQ2IiB5PSI0MjgiLz48ZWxsaXBzZSBjeD0iNjEiIGN5PSI0NDQiIGZpbGw9IiNBREQxQjIiIHJ4PSIxMSIgcnk9IjExIiBzdHlsZT0ic3Ryb2tlOiMxODE4MTg7c3Ryb2tlLXdpZHRoOjEuMDsiLz48cGF0aCBkPSJNNTguNjI1LDQ0OC4yNSBMNTguNjI1LDQ1MCBMNjMuNTYyNSw0NTAgTDYzLjU2MjUsNDQ4LjI1IEw1OC42MjUsNDQ4LjI1IFogTTU5LjMxMjUsNDQ4LjkzNzUgUTU5LjMxMjUsNDQ4LjkzNzUgNTkuMzEyNSw0MzkuNzUgTDU3LjU2MjUsNDM5Ljc1IFE1Ny41NjI1LDQzOS43NSA1Ny41NjI1LDQ0OC45Mzc1IEw1OS4zMTI1LDQ0OC45Mzc1IFogTTYyLjg3NSw0NDguOTM3NSBMNjQuNjI1LDQ0OC45Mzc1IFE2NC42MjUsNDQ4LjkzNzUgNjQuNjI1LDQ0Ni4xMjUgTDYyLjg3NSw0NDYuMTI1IFE2Mi44NzUsNDQ2LjEyNSA2Mi44NzUsNDQ4LjkzNzUgWiBNNjIuODc1LDQzOS43NSBRNjIuODc1LDQzOS43NSA2Mi44NzUsNDQyLjU2MjUgTDY0LjYyNSw0NDIuNTYyNSBRNjQuNjI1LDQ0Mi41NjI1IDY0LjYyNSw0MzkuNzUgTDYyLjg3NSw0MzkuNzUgWiBNNTguNjI1LDQ0MC40Mzc1IEw2My41NjI1LDQ0MC40Mzc1IEw2My41NjI1LDQzOC42ODc1IEw1OC42MjUsNDM4LjY4NzUgTDU4LjYyNSw0NDAuNDM3NSBaICIgZmlsbD0iIzAwMDAwMCIvPjx0ZXh0IGZpbGw9IiMwMDAwMDAiIGZvbnQtZmFtaWx5PSJzYW5zLXNlcmlmIiBmb250LXNpemU9IjE0IiBsZW5ndGhBZGp1c3Q9InNwYWNpbmciIHRleHRMZW5ndGg9IjcwIiB4PSI3NSIgeT0iNDQ5Ljc0MjIiPldhdGVyVmFsdmU8L3RleHQ+PGxpbmUgc3R5bGU9InN0cm9rZTojMTgxODE4O3N0cm9rZS13aWR0aDowLjU7IiB4MT0iNDciIHgyPSIxNDciIHkxPSI0NjAiIHkyPSI0NjAiLz48bGluZSBzdHlsZT0ic3Ryb2tlOiMxODE4MTg7c3Ryb2tlLXdpZHRoOjAuNTsiIHgxPSI0NyIgeDI9IjE0NyIgeTE9IjQ2OCIgeTI9IjQ2OCIvPjwvZz48IS0tY2xhc3MgQ2xvdWREYXRhYmFzZS0tPjxnIGlkPSJlbGVtX0Nsb3VkRGF0YWJhc2UiPjxyZWN0IGNvZGVMaW5lPSIxNyIgZmlsbD0iI0YxRjFGMSIgaGVpZ2h0PSI0OCIgaWQ9IkNsb3VkRGF0YWJhc2UiIHJ4PSIyLjUiIHJ5PSIyLjUiIHN0eWxlPSJzdHJva2U6IzE4MTgxODtzdHJva2Utd2lkdGg6MC41OyIgd2lkdGg9IjEyMyIgeD0iMjA0LjUiIHk9IjQyOCIvPjxlbGxpcHNlIGN4PSIyMTkuNSIgY3k9IjQ0NCIgZmlsbD0iI0FERDFCMiIgcng9IjExIiByeT0iMTEiIHN0eWxlPSJzdHJva2U6IzE4MTgxODtzdHJva2Utd2lkdGg6MS4wOyIvPjxwYXRoIGQ9Ik0yMTcuMTI1LDQ0OC4yNSBMMjE3LjEyNSw0NTAgTDIyMi4wNjI1LDQ1MCBMMjIyLjA2MjUsNDQ4LjI1IEwyMTcuMTI1LDQ0OC4yNSBaIE0yMTcuODEyNSw0NDguOTM3NSBRMjE3LjgxMjUsNDQ4LjkzNzUgMjE3LjgxMjUsNDM5Ljc1IEwyMTYuMDYyNSw0MzkuNzUgUTIxNi4wNjI1LDQzOS43NSAyMTYuMDYyNSw0NDguOTM3NSBMMjE3LjgxMjUsNDQ4LjkzNzUgWiBNMjIxLjM3NSw0NDguOTM3NSBMMjIzLjEyNSw0NDguOTM3NSBRMjIzLjEyNSw0NDguOTM3NSAyMjMuMTI1LDQ0Ni4xMjUgTDIyMS4zNzUsNDQ2LjEyNSBRMjIxLjM3NSw0NDYuMTI1IDIyMS4zNzUsNDQ4LjkzNzUgWiBNMjIxLjM3NSw0MzkuNzUgUTIyMS4zNzUsNDM5Ljc1IDIyMS4zNzUsNDQyLjU2MjUgTDIyMy4xMjUsNDQyLjU2MjUgUTIyMy4xMjUsNDQyLjU2MjUgMjIzLjEyNSw0MzkuNzUgTDIyMS4zNzUsNDM5Ljc1IFogTTIxNy4xMjUsNDQwLjQzNzUgTDIyMi4wNjI1LDQ0MC40Mzc1IEwyMjIuMDYyNSw0MzguNjg3NSBMMjE3LjEyNSw0MzguNjg3NSBMMjE3LjEyNSw0NDAuNDM3NSBaICIgZmlsbD0iIzAwMDAwMCIvPjx0ZXh0IGZpbGw9IiMwMDAwMDAiIGZvbnQtZmFtaWx5PSJzYW5zLXNlcmlmIiBmb250LXNpemU9IjE0IiBsZW5ndGhBZGp1c3Q9InNwYWNpbmciIHRleHRMZW5ndGg9IjkxIiB4PSIyMzMuNSIgeT0iNDQ5Ljc0MjIiPkNsb3VkRGF0YWJhc2U8L3RleHQ+PGxpbmUgc3R5bGU9InN0cm9rZTojMTgxODE4O3N0cm9rZS13aWR0aDowLjU7IiB4MT0iMjA1LjUiIHgyPSIzMjYuNSIgeTE9IjQ2MCIgeTI9IjQ2MCIvPjxsaW5lIHN0eWxlPSJzdHJva2U6IzE4MTgxODtzdHJva2Utd2lkdGg6MC41OyIgeDE9IjIwNS41IiB4Mj0iMzI2LjUiIHkxPSI0NjgiIHkyPSI0NjgiLz48L2c+PCEtLWNsYXNzIE5vdGlmaWNhdGlvblNlcnZpY2UtLT48ZyBpZD0iZWxlbV9Ob3RpZmljYXRpb25TZXJ2aWNlIj48cmVjdCBjb2RlTGluZT0iMjAiIGZpbGw9IiNGMUYxRjEiIGhlaWdodD0iNDgiIGlkPSJOb3RpZmljYXRpb25TZXJ2aWNlIiByeD0iMi41IiByeT0iMi41IiBzdHlsZT0ic3Ryb2tlOiMxODE4MTg7c3Ryb2tlLXdpZHRoOjAuNTsiIHdpZHRoPSIxNjUiIHg9IjM4NC41IiB5PSI0MjgiLz48ZWxsaXBzZSBjeD0iMzk5LjUiIGN5PSI0NDQiIGZpbGw9IiNBREQxQjIiIHJ4PSIxMSIgcnk9IjExIiBzdHlsZT0ic3Ryb2tlOiMxODE4MTg7c3Ryb2tlLXdpZHRoOjEuMDsiLz48cGF0aCBkPSJNMzk3LjEyNSw0NDguMjUgTDM5Ny4xMjUsNDUwIEw0MDIuMDYyNSw0NTAgTDQwMi4wNjI1LDQ0OC4yNSBMMzk3LjEyNSw0NDguMjUgWiBNMzk3LjgxMjUsNDQ4LjkzNzUgUTM5Ny44MTI1LDQ0OC45Mzc1IDM5Ny44MTI1LDQzOS43NSBMMzk2LjA2MjUsNDM5Ljc1IFEzOTYuMDYyNSw0MzkuNzUgMzk2LjA2MjUsNDQ4LjkzNzUgTDM5Ny44MTI1LDQ0OC45Mzc1IFogTTQwMS4zNzUsNDQ4LjkzNzUgTDQwMy4xMjUsNDQ4LjkzNzUgUTQwMy4xMjUsNDQ4LjkzNzUgNDAzLjEyNSw0NDYuMTI1IEw0MDEuMzc1LDQ0Ni4xMjUgUTQwMS4zNzUsNDQ2LjEyNSA0MDEuMzc1LDQ0OC45Mzc1IFogTTQwMS4zNzUsNDM5Ljc1IFE0MDEuMzc1LDQzOS43NSA0MDEuMzc1LDQ0Mi41NjI1IEw0MDMuMTI1LDQ0Mi41NjI1IFE0MDMuMTI1LDQ0Mi41NjI1IDQwMy4xMjUsNDM5Ljc1IEw0MDEuMzc1LDQzOS43NSBaIE0zOTcuMTI1LDQ0MC40Mzc1IEw0MDIuMDYyNSw0NDAuNDM3NSBMNDAyLjA2MjUsNDM4LjY4NzUgTDM5Ny4xMjUsNDM4LjY4NzUgTDM5Ny4xMjUsNDQwLjQzNzUgWiAiIGZpbGw9IiMwMDAwMDAiLz48dGV4dCBmaWxsPSIjMDAwMDAwIiBmb250LWZhbWlseT0ic2Fucy1zZXJpZiIgZm9udC1zaXplPSIxNCIgbGVuZ3RoQWRqdXN0PSJzcGFjaW5nIiB0ZXh0TGVuZ3RoPSIxMzMiIHg9IjQxMy41IiB5PSI0NDkuNzQyMiI+Tm90aWZpY2F0aW9uU2VydmljZTwvdGV4dD48bGluZSBzdHlsZT0ic3Ryb2tlOiMxODE4MTg7c3Ryb2tlLXdpZHRoOjAuNTsiIHgxPSIzODUuNSIgeDI9IjU0OC41IiB5MT0iNDYwIiB5Mj0iNDYwIi8+PGxpbmUgc3R5bGU9InN0cm9rZTojMTgxODE4O3N0cm9rZS13aWR0aDowLjU7IiB4MT0iMzg1LjUiIHgyPSI1NDguNSIgeTE9IjQ2OCIgeTI9IjQ2OCIvPjwvZz48IS0tY2xhc3MgTW9iaWxlQXBwLS0+PGcgaWQ9ImVsZW1fTW9iaWxlQXBwIj48cmVjdCBjb2RlTGluZT0iMjMiIGZpbGw9IiNGMUYxRjEiIGhlaWdodD0iNDgiIGlkPSJNb2JpbGVBcHAiIHJ4PSIyLjUiIHJ5PSIyLjUiIHN0eWxlPSJzdHJva2U6IzE4MTgxODtzdHJva2Utd2lkdGg6MC41OyIgd2lkdGg9Ijk1IiB4PSI0MTkuNSIgeT0iNTcyIi8+PGVsbGlwc2UgY3g9IjQzNC41IiBjeT0iNTg4IiBmaWxsPSIjQUREMUIyIiByeD0iMTEiIHJ5PSIxMSIgc3R5bGU9InN0cm9rZTojMTgxODE4O3N0cm9rZS13aWR0aDoxLjA7Ii8+PHBhdGggZD0iTTQzMi4xMjUsNTkyLjI1IEw0MzIuMTI1LDU5NCBMNDM3LjA2MjUsNTk0IEw0MzcuMDYyNSw1OTIuMjUgTDQzMi4xMjUsNTkyLjI1IFogTTQzMi44MTI1LDU5Mi45Mzc1IFE0MzIuODEyNSw1OTIuOTM3NSA0MzIuODEyNSw1ODMuNzUgTDQzMS4wNjI1LDU4My43NSBRNDMxLjA2MjUsNTgzLjc1IDQzMS4wNjI1LDU5Mi45Mzc1IEw0MzIuODEyNSw1OTIuOTM3NSBaIE00MzYuMzc1LDU5Mi45Mzc1IEw0MzguMTI1LDU5Mi45Mzc1IFE0MzguMTI1LDU5Mi45Mzc1IDQzOC4xMjUsNTkwLjEyNSBMNDM2LjM3NSw1OTAuMTI1IFE0MzYuMzc1LDU5MC4xMjUgNDM2LjM3NSw1OTIuOTM3NSBaIE00MzYuMzc1LDU4My43NSBRNDM2LjM3NSw1ODMuNzUgNDM2LjM3NSw1ODYuNTYyNSBMNDM4LjEyNSw1ODYuNTYyNSBRNDM4LjEyNSw1ODYuNTYyNSA0MzguMTI1LDU4My43NSBMNDM2LjM3NSw1ODMuNzUgWiBNNDMyLjEyNSw1ODQuNDM3NSBMNDM3LjA2MjUsNTg0LjQzNzUgTDQzNy4wNjI1LDU4Mi42ODc1IEw0MzIuMTI1LDU4Mi42ODc1IEw0MzIuMTI1LDU4NC40Mzc1IFogIiBmaWxsPSIjMDAwMDAwIi8+PHRleHQgZmlsbD0iIzAwMDAwMCIgZm9udC1mYW1pbHk9InNhbnMtc2VyaWYiIGZvbnQtc2l6ZT0iMTQiIGxlbmd0aEFkanVzdD0ic3BhY2luZyIgdGV4dExlbmd0aD0iNjMiIHg9IjQ0OC41IiB5PSI1OTMuNzQyMiI+TW9iaWxlQXBwPC90ZXh0PjxsaW5lIHN0eWxlPSJzdHJva2U6IzE4MTgxODtzdHJva2Utd2lkdGg6MC41OyIgeDE9IjQyMC41IiB4Mj0iNTEzLjUiIHkxPSI2MDQiIHkyPSI2MDQiLz48bGluZSBzdHlsZT0ic3Ryb2tlOiMxODE4MTg7c3Ryb2tlLXdpZHRoOjAuNTsiIHgxPSI0MjAuNSIgeDI9IjUxMy41IiB5MT0iNjEyIiB5Mj0iNjEyIi8+PC9nPjwhLS1saW5rIE1vaXN0dXJlU2Vuc29yIHRvIENlbnRyYWxDb250cm9sbGVyLS0+PGcgaWQ9ImxpbmtfTW9pc3R1cmVTZW5zb3JfQ2VudHJhbENvbnRyb2xsZXIiPjxwYXRoIGNvZGVMaW5lPSIyNiIgZD0iTTI2NiwxMjguMiBDMjY2LDE1Mi41OSAyNjYsMTg1LjggMjY2LDIxNy44NSAiIGZpbGw9Im5vbmUiIGlkPSJNb2lzdHVyZVNlbnNvci10by1DZW50cmFsQ29udHJvbGxlciIgc3R5bGU9InN0cm9rZTojMTgxODE4O3N0cm9rZS13aWR0aDoxLjA7Ii8+PHBvbHlnb24gZmlsbD0iIzE4MTgxOCIgcG9pbnRzPSIyNjYsMjIzLjg1LDI3MCwyMTQuODUsMjY2LDIxOC44NSwyNjIsMjE0Ljg1LDI2NiwyMjMuODUiIHN0eWxlPSJzdHJva2U6IzE4MTgxODtzdHJva2Utd2lkdGg6MS4wOyIvPjx0ZXh0IGZpbGw9IiMwMDAwMDAiIGZvbnQtZmFtaWx5PSJzYW5zLXNlcmlmIiBmb250LXNpemU9IjEzIiBsZW5ndGhBZGp1c3Q9InNwYWNpbmciIHRleHRMZW5ndGg9IjY5IiB4PSIyNjciIHk9IjE3My4yODkxIj5zZW5kcyBkYXRhPC90ZXh0PjwvZz48IS0tbGluayBDZW50cmFsQ29udHJvbGxlciB0byBXYXRlclZhbHZlLS0+PGcgaWQ9ImxpbmtfQ2VudHJhbENvbnRyb2xsZXJfV2F0ZXJWYWx2ZSI+PHBhdGggY29kZUxpbmU9IjI3IiBkPSJNMTk0LjQxLDMzMi4wMyBDMTgyLjQyLDM0Mi4xMiAxNzAuNDksMzUyLjk4IDE2MCwzNjQgQzE0MS4xLDM4My44NSAxMjYuMzkyNiw0MDQuNTU0NiAxMTQuNTIyNiw0MjIuODc0NiAiIGZpbGw9Im5vbmUiIGlkPSJDZW50cmFsQ29udHJvbGxlci10by1XYXRlclZhbHZlIiBzdHlsZT0ic3Ryb2tlOiMxODE4MTg7c3Ryb2tlLXdpZHRoOjEuMDsiLz48cG9seWdvbiBmaWxsPSIjMTgxODE4IiBwb2ludHM9IjExMS4yNiw0MjcuOTEsMTE5LjUxMDgsNDIyLjUzMTksMTEzLjk3ODgsNDIzLjcxMzgsMTEyLjc5NjksNDE4LjE4MTgsMTExLjI2LDQyNy45MSIgc3R5bGU9InN0cm9rZTojMTgxODE4O3N0cm9rZS13aWR0aDoxLjA7Ii8+PHRleHQgZmlsbD0iIzAwMDAwMCIgZm9udC1mYW1pbHk9InNhbnMtc2VyaWYiIGZvbnQtc2l6ZT0iMTMiIGxlbmd0aEFkanVzdD0ic3BhY2luZyIgdGV4dExlbmd0aD0iOTYiIHg9IjE2MSIgeT0iMzc3LjI4OTEiPnNlbmRzIGNvbW1hbmRzPC90ZXh0PjwvZz48IS0tbGluayBDZW50cmFsQ29udHJvbGxlciB0byBDbG91ZERhdGFiYXNlLS0+PGcgaWQ9ImxpbmtfQ2VudHJhbENvbnRyb2xsZXJfQ2xvdWREYXRhYmFzZSI+PHBhdGggY29kZUxpbmU9IjI4IiBkPSJNMjY2LDMzMi4wMSBDMjY2LDM2My45OSAyNjYsMzk3LjE1IDI2Niw0MjEuNTkgIiBmaWxsPSJub25lIiBpZD0iQ2VudHJhbENvbnRyb2xsZXItdG8tQ2xvdWREYXRhYmFzZSIgc3R5bGU9InN0cm9rZTojMTgxODE4O3N0cm9rZS13aWR0aDoxLjA7Ii8+PHBvbHlnb24gZmlsbD0iIzE4MTgxOCIgcG9pbnRzPSIyNjYsNDI3LjU5LDI3MCw0MTguNTksMjY2LDQyMi41OSwyNjIsNDE4LjU5LDI2Niw0MjcuNTkiIHN0eWxlPSJzdHJva2U6IzE4MTgxODtzdHJva2Utd2lkdGg6MS4wOyIvPjx0ZXh0IGZpbGw9IiMwMDAwMDAiIGZvbnQtZmFtaWx5PSJzYW5zLXNlcmlmIiBmb250LXNpemU9IjEzIiBsZW5ndGhBZGp1c3Q9InNwYWNpbmciIHRleHRMZW5ndGg9IjgyIiB4PSIyNjciIHk9IjM3Ny4yODkxIj51cGRhdGVzIGRhdGE8L3RleHQ+PC9nPjwhLS1saW5rIENlbnRyYWxDb250cm9sbGVyIHRvIE5vdGlmaWNhdGlvblNlcnZpY2UtLT48ZyBpZD0ibGlua19DZW50cmFsQ29udHJvbGxlcl9Ob3RpZmljYXRpb25TZXJ2aWNlIj48cGF0aCBjb2RlTGluZT0iMjkiIGQ9Ik0zMjcuOTUsMzMyLjAxIEMzNjUuNDQsMzY0LjA5IDQwNi44MDExLDM5OS40ODkyIDQzNS4zNDExLDQyMy45MDkyICIgZmlsbD0ibm9uZSIgaWQ9IkNlbnRyYWxDb250cm9sbGVyLXRvLU5vdGlmaWNhdGlvblNlcnZpY2UiIHN0eWxlPSJzdHJva2U6IzE4MTgxODtzdHJva2Utd2lkdGg6MS4wOyIvPjxwb2x5Z29uIGZpbGw9IiMxODE4MTgiIHBvaW50cz0iNDM5LjksNDI3LjgxLDQzNS42NjIyLDQxOC45MTk1LDQzNi4xMDA5LDQyNC41NTkzLDQzMC40NjExLDQyNC45OTgxLDQzOS45LDQyNy44MSIgc3R5bGU9InN0cm9rZTojMTgxODE4O3N0cm9rZS13aWR0aDoxLjA7Ii8+PHRleHQgZmlsbD0iIzAwMDAwMCIgZm9udC1mYW1pbHk9InNhbnMtc2VyaWYiIGZvbnQtc2l6ZT0iMTMiIGxlbmd0aEFkanVzdD0ic3BhY2luZyIgdGV4dExlbmd0aD0iMTI3IiB4PSIzNzkiIHk9IjM3Ny4yODkxIj5zZW5kcyBub3RpZmljYXRpb25zPC90ZXh0PjwvZz48IS0tbGluayBOb3RpZmljYXRpb25TZXJ2aWNlIHRvIE1vYmlsZUFwcC0tPjxnIGlkPSJsaW5rX05vdGlmaWNhdGlvblNlcnZpY2VfTW9iaWxlQXBwIj48cGF0aCBjb2RlTGluZT0iMzAiIGQ9Ik00NjcsNDc2LjEzIEM0NjcsNTAyLjU0IDQ2Nyw1MzkuNDggNDY3LDU2NS44OCAiIGZpbGw9Im5vbmUiIGlkPSJOb3RpZmljYXRpb25TZXJ2aWNlLXRvLU1vYmlsZUFwcCIgc3R5bGU9InN0cm9rZTojMTgxODE4O3N0cm9rZS13aWR0aDoxLjA7Ii8+PHBvbHlnb24gZmlsbD0iIzE4MTgxOCIgcG9pbnRzPSI0NjcsNTcxLjg4LDQ3MSw1NjIuODgsNDY3LDU2Ni44OCw0NjMsNTYyLjg4LDQ2Nyw1NzEuODgiIHN0eWxlPSJzdHJva2U6IzE4MTgxODtzdHJva2Utd2lkdGg6MS4wOyIvPjx0ZXh0IGZpbGw9IiMwMDAwMDAiIGZvbnQtZmFtaWx5PSJzYW5zLXNlcmlmIiBmb250LXNpemU9IjEzIiBsZW5ndGhBZGp1c3Q9InNwYWNpbmciIHRleHRMZW5ndGg9IjQ4IiB4PSI0NjgiIHk9IjUyMS4yODkxIj51cGRhdGVzPC90ZXh0PjwvZz48IS0tU1JDPVtYUEIxUWlDbTM4UmxWR2hIcXlSZTItbkc2RGJiWHV2MU8zc2haYlJDN0RqT0pjNkNsRmppZnFjU3BTcnFDSzdWX3lsLTVPbFk0eXk0c3hmNXYtNzVFTmI2QnVzNi1laXpqTGx1dGEwZUV0NmFzSlh1Nnh4N1RZb1hhMWFFSGhCbDcwclNRbFBCWHlmZXh1bklqRTlJS00xR1BVWENuN2dtcFdYWTdnT3lleVV4LW9OMGY5bEFqMnRnWGRfdEVqa1dmd1d3OExEOS1NZ3lfOTBZOVA3Qi16QTN0YjVUd0ZQUlpjNk1JcW45RkR2WTlHamJrY1I0SVhSdlBNX1J2NUhEeFk5NXFVbldKYjhIRjVjeGprRjgxRUhnYTh4YnVjNnRzblVzLTBXbk5PUUdGb1JMTm9HQXZ5V2NYUlprU2FNcjIyZThYcE5fRXdtR3AzSEx2X3oxeVlaSHFNTkFQMXd5d055MF0tLT48L2c+PC9zdmc+;" parent="1" vertex="1">
            <mxGeometry x="130" y="-70" width="597" height="667" as="geometry" />
          </mxCell>
        </UserObject>
        <mxCell id="p0RDuZN4yrUeEtZU9wO6-4" value="" style="group" parent="1" vertex="1" connectable="0">
          <mxGeometry x="814" y="-77" width="576" height="709" as="geometry" />
        </mxCell>
        <mxCell id="p0RDuZN4yrUeEtZU9wO6-2" value="" style="shape=folder;fontStyle=1;spacingTop=10;tabWidth=136;tabHeight=26;tabPosition=left;html=1;whiteSpace=wrap;" parent="p0RDuZN4yrUeEtZU9wO6-4" vertex="1">
          <mxGeometry x="10.33" width="565.67" height="681" as="geometry" />
        </mxCell>
        <mxCell id="p0RDuZN4yrUeEtZU9wO6-3" value="Smart Irritation System" style="text;html=1;align=center;verticalAlign=middle;resizable=0;points=[];autosize=1;strokeColor=none;fillColor=none;" parent="p0RDuZN4yrUeEtZU9wO6-4" vertex="1">
          <mxGeometry x="7.212880143112702" width="140" height="26" as="geometry" />
        </mxCell>
        <mxCell id="p0RDuZN4yrUeEtZU9wO6-7" value="" style="group" parent="p0RDuZN4yrUeEtZU9wO6-4" vertex="1" connectable="0">
          <mxGeometry x="178.26" y="51" width="198.87" height="105" as="geometry" />
        </mxCell>
        <mxCell id="p0RDuZN4yrUeEtZU9wO6-5" value="" style="shape=folder;fontStyle=1;spacingTop=10;tabWidth=107;tabHeight=25;tabPosition=left;html=1;whiteSpace=wrap;" parent="p0RDuZN4yrUeEtZU9wO6-7" vertex="1">
          <mxGeometry width="198.87" height="105" as="geometry" />
        </mxCell>
        <mxCell id="p0RDuZN4yrUeEtZU9wO6-6" value="Sensore Package" style="text;html=1;align=center;verticalAlign=middle;resizable=0;points=[];autosize=1;strokeColor=none;fillColor=none;" parent="p0RDuZN4yrUeEtZU9wO6-7" vertex="1">
          <mxGeometry x="-4.121658031088083" width="113" height="26" as="geometry" />
        </mxCell>
        <mxCell id="p0RDuZN4yrUeEtZU9wO6-8" value="&lt;p style=&quot;margin:0px;margin-top:4px;text-align:center;&quot;&gt;&lt;b&gt;MoistureSenso&lt;/b&gt;&lt;/p&gt;&lt;hr size=&quot;1&quot; style=&quot;border-style:solid;&quot;&gt;&lt;p style=&quot;margin:0px;margin-left:4px;&quot;&gt;&lt;br&gt;&lt;/p&gt;" style="verticalAlign=top;align=left;overflow=fill;html=1;whiteSpace=wrap;" parent="p0RDuZN4yrUeEtZU9wO6-7" vertex="1">
          <mxGeometry x="17.001839378238344" y="38.87096774193549" width="164.86632124352332" height="44.03225806451613" as="geometry" />
        </mxCell>
        <mxCell id="p0RDuZN4yrUeEtZU9wO6-9" value="" style="group" parent="p0RDuZN4yrUeEtZU9wO6-4" vertex="1" connectable="0">
          <mxGeometry x="178.26118067978535" y="201" width="232.87298747763867" height="196" as="geometry" />
        </mxCell>
        <mxCell id="p0RDuZN4yrUeEtZU9wO6-10" value="" style="shape=folder;fontStyle=1;spacingTop=10;tabWidth=112;tabHeight=25;tabPosition=left;html=1;whiteSpace=wrap;" parent="p0RDuZN4yrUeEtZU9wO6-9" vertex="1">
          <mxGeometry width="232.87" height="183" as="geometry" />
        </mxCell>
        <mxCell id="p0RDuZN4yrUeEtZU9wO6-11" value="Controller Package" style="text;html=1;align=center;verticalAlign=middle;resizable=0;points=[];autosize=1;strokeColor=none;fillColor=none;" parent="p0RDuZN4yrUeEtZU9wO6-9" vertex="1">
          <mxGeometry x="-4.650198819134836" width="120" height="26" as="geometry" />
        </mxCell>
        <mxCell id="p0RDuZN4yrUeEtZU9wO6-30" value="&lt;p style=&quot;margin:0px;margin-top:4px;text-align:center;&quot;&gt;&lt;b&gt;CentralController&lt;/b&gt;&lt;/p&gt;&lt;hr size=&quot;1&quot; style=&quot;border-style:solid;&quot;&gt;&lt;p style=&quot;margin: 0px 0px 0px 4px;&quot;&gt;+processSensorData()&lt;/p&gt;&lt;p style=&quot;margin: 0px 0px 0px 4px;&quot;&gt;+sendCommands()&lt;/p&gt;&lt;p style=&quot;margin: 0px 0px 0px 4px;&quot;&gt;+updateDatabase()&lt;/p&gt;&lt;p style=&quot;margin: 0px 0px 0px 4px;&quot;&gt;+sendNotifications()&lt;/p&gt;" style="verticalAlign=top;align=left;overflow=fill;html=1;whiteSpace=wrap;" parent="p0RDuZN4yrUeEtZU9wO6-9" vertex="1">
          <mxGeometry x="19.907549194991056" y="58" width="193.05788908765655" height="100" as="geometry" />
        </mxCell>
        <mxCell id="p0RDuZN4yrUeEtZU9wO6-13" value="" style="group" parent="p0RDuZN4yrUeEtZU9wO6-4" vertex="1" connectable="0">
          <mxGeometry x="35.03398926654741" y="425" width="160.74418604651163" height="101" as="geometry" />
        </mxCell>
        <mxCell id="p0RDuZN4yrUeEtZU9wO6-14" value="" style="shape=folder;fontStyle=1;spacingTop=10;tabWidth=107;tabHeight=25;tabPosition=left;html=1;whiteSpace=wrap;" parent="p0RDuZN4yrUeEtZU9wO6-13" vertex="1">
          <mxGeometry width="160.74418604651163" height="100.99999999999999" as="geometry" />
        </mxCell>
        <mxCell id="p0RDuZN4yrUeEtZU9wO6-15" value="Valve Package" style="text;html=1;align=center;verticalAlign=middle;resizable=0;points=[];autosize=1;strokeColor=none;fillColor=none;" parent="p0RDuZN4yrUeEtZU9wO6-13" vertex="1">
          <mxGeometry x="5.152057245080501" width="97" height="26" as="geometry" />
        </mxCell>
        <mxCell id="p0RDuZN4yrUeEtZU9wO6-16" value="&lt;p style=&quot;margin:0px;margin-top:4px;text-align:center;&quot;&gt;&lt;b&gt;WaterValve&lt;/b&gt;&lt;br&gt;&lt;/p&gt;&lt;hr size=&quot;1&quot; style=&quot;border-style:solid;&quot;&gt;&lt;p style=&quot;margin:0px;margin-left:4px;&quot;&gt;&lt;br&gt;&lt;/p&gt;" style="verticalAlign=top;align=left;overflow=fill;html=1;whiteSpace=wrap;" parent="p0RDuZN4yrUeEtZU9wO6-13" vertex="1">
          <mxGeometry x="13.742378599831305" y="47.58064516129032" width="133.25942884684903" height="42.35483870967741" as="geometry" />
        </mxCell>
        <mxCell id="p0RDuZN4yrUeEtZU9wO6-17" value="" style="group" parent="p0RDuZN4yrUeEtZU9wO6-4" vertex="1" connectable="0">
          <mxGeometry x="212.79026833631485" y="425" width="160.74418604651163" height="101" as="geometry" />
        </mxCell>
        <mxCell id="p0RDuZN4yrUeEtZU9wO6-18" value="" style="shape=folder;fontStyle=1;spacingTop=10;tabWidth=120;tabHeight=25;tabPosition=left;html=1;whiteSpace=wrap;" parent="p0RDuZN4yrUeEtZU9wO6-17" vertex="1">
          <mxGeometry width="160.74418604651163" height="100.99999999999999" as="geometry" />
        </mxCell>
        <mxCell id="p0RDuZN4yrUeEtZU9wO6-19" value="Database Package" style="text;html=1;align=center;verticalAlign=middle;resizable=0;points=[];autosize=1;strokeColor=none;fillColor=none;" parent="p0RDuZN4yrUeEtZU9wO6-17" vertex="1">
          <mxGeometry width="119" height="26" as="geometry" />
        </mxCell>
        <mxCell id="p0RDuZN4yrUeEtZU9wO6-20" value="&lt;p style=&quot;margin:0px;margin-top:4px;text-align:center;&quot;&gt;&lt;b&gt;CloudDatabase&lt;/b&gt;&lt;br&gt;&lt;/p&gt;&lt;hr size=&quot;1&quot; style=&quot;border-style:solid;&quot;&gt;&lt;p style=&quot;margin:0px;margin-left:4px;&quot;&gt;&lt;br&gt;&lt;/p&gt;" style="verticalAlign=top;align=left;overflow=fill;html=1;whiteSpace=wrap;" parent="p0RDuZN4yrUeEtZU9wO6-17" vertex="1">
          <mxGeometry x="13.742378599831305" y="48.58064516129032" width="133.25942884684903" height="42.35483870967741" as="geometry" />
        </mxCell>
        <mxCell id="p0RDuZN4yrUeEtZU9wO6-21" value="" style="group" parent="p0RDuZN4yrUeEtZU9wO6-4" vertex="1" connectable="0">
          <mxGeometry x="388.4651162790698" y="425" width="160.74418604651163" height="101" as="geometry" />
        </mxCell>
        <mxCell id="p0RDuZN4yrUeEtZU9wO6-22" value="" style="shape=folder;fontStyle=1;spacingTop=10;tabWidth=125;tabHeight=25;tabPosition=left;html=1;whiteSpace=wrap;" parent="p0RDuZN4yrUeEtZU9wO6-21" vertex="1">
          <mxGeometry width="160.74418604651163" height="100.99999999999999" as="geometry" />
        </mxCell>
        <mxCell id="p0RDuZN4yrUeEtZU9wO6-23" value="Notification Package" style="text;html=1;align=center;verticalAlign=middle;resizable=0;points=[];autosize=1;strokeColor=none;fillColor=none;" parent="p0RDuZN4yrUeEtZU9wO6-21" vertex="1">
          <mxGeometry x="-2.0608228980322005" width="127" height="26" as="geometry" />
        </mxCell>
        <mxCell id="p0RDuZN4yrUeEtZU9wO6-24" value="&lt;p style=&quot;margin:0px;margin-top:4px;text-align:center;&quot;&gt;&lt;b&gt;NotificationService&lt;/b&gt;&lt;br&gt;&lt;/p&gt;&lt;hr size=&quot;1&quot; style=&quot;border-style:solid;&quot;&gt;&lt;p style=&quot;margin:0px;margin-left:4px;&quot;&gt;&lt;br&gt;&lt;/p&gt;" style="verticalAlign=top;align=left;overflow=fill;html=1;whiteSpace=wrap;" parent="p0RDuZN4yrUeEtZU9wO6-21" vertex="1">
          <mxGeometry x="13.742378599831305" y="46.58064516129032" width="133.25942884684903" height="42.35483870967741" as="geometry" />
        </mxCell>
        <mxCell id="p0RDuZN4yrUeEtZU9wO6-26" value="" style="group" parent="p0RDuZN4yrUeEtZU9wO6-4" vertex="1" connectable="0">
          <mxGeometry x="388.4651162790698" y="561" width="160.74418604651163" height="110" as="geometry" />
        </mxCell>
        <mxCell id="p0RDuZN4yrUeEtZU9wO6-27" value="" style="shape=folder;fontStyle=1;spacingTop=10;tabWidth=118;tabHeight=26;tabPosition=left;html=1;whiteSpace=wrap;" parent="p0RDuZN4yrUeEtZU9wO6-26" vertex="1">
          <mxGeometry width="160.74418604651163" height="109.99999999999999" as="geometry" />
        </mxCell>
        <mxCell id="p0RDuZN4yrUeEtZU9wO6-28" value="Mobile App Package" style="text;html=1;align=center;verticalAlign=middle;resizable=0;points=[];autosize=1;strokeColor=none;fillColor=none;" parent="p0RDuZN4yrUeEtZU9wO6-26" vertex="1">
          <mxGeometry x="-5.152057245080501" width="127" height="26" as="geometry" />
        </mxCell>
        <mxCell id="p0RDuZN4yrUeEtZU9wO6-29" value="&lt;p style=&quot;margin:0px;margin-top:4px;text-align:center;&quot;&gt;&lt;b&gt;MobileApp&lt;/b&gt;&lt;br&gt;&lt;/p&gt;&lt;hr size=&quot;1&quot; style=&quot;border-style:solid;&quot;&gt;&lt;p style=&quot;margin:0px;margin-left:4px;&quot;&gt;&lt;br&gt;&lt;/p&gt;" style="verticalAlign=top;align=left;overflow=fill;html=1;whiteSpace=wrap;" parent="p0RDuZN4yrUeEtZU9wO6-26" vertex="1">
          <mxGeometry x="13.742378599831305" y="48.00387096774193" width="133.25942884684903" height="46.129032258064505" as="geometry" />
        </mxCell>
        <mxCell id="p0RDuZN4yrUeEtZU9wO6-31" style="edgeStyle=orthogonalEdgeStyle;rounded=0;orthogonalLoop=1;jettySize=auto;html=1;entryX=0.648;entryY=0.018;entryDx=0;entryDy=0;entryPerimeter=0;exitX=0.776;exitY=1.002;exitDx=0;exitDy=0;exitPerimeter=0;" parent="p0RDuZN4yrUeEtZU9wO6-4" source="p0RDuZN4yrUeEtZU9wO6-8" target="p0RDuZN4yrUeEtZU9wO6-30" edge="1">
          <mxGeometry relative="1" as="geometry">
            <mxPoint x="323" y="142" as="sourcePoint" />
            <Array as="points" />
          </mxGeometry>
        </mxCell>
        <mxCell id="p0RDuZN4yrUeEtZU9wO6-32" style="edgeStyle=orthogonalEdgeStyle;rounded=0;orthogonalLoop=1;jettySize=auto;html=1;" parent="p0RDuZN4yrUeEtZU9wO6-4" source="p0RDuZN4yrUeEtZU9wO6-24" target="p0RDuZN4yrUeEtZU9wO6-29" edge="1">
          <mxGeometry relative="1" as="geometry">
            <Array as="points">
              <mxPoint x="521.3881932021467" y="551" />
              <mxPoint x="521.3881932021467" y="551" />
            </Array>
          </mxGeometry>
        </mxCell>
        <mxCell id="p0RDuZN4yrUeEtZU9wO6-37" style="edgeStyle=orthogonalEdgeStyle;rounded=0;orthogonalLoop=1;jettySize=auto;html=1;entryX=0.941;entryY=0.032;entryDx=0;entryDy=0;entryPerimeter=0;" parent="p0RDuZN4yrUeEtZU9wO6-4" source="p0RDuZN4yrUeEtZU9wO6-30" target="p0RDuZN4yrUeEtZU9wO6-24" edge="1">
          <mxGeometry relative="1" as="geometry" />
        </mxCell>
        <mxCell id="p0RDuZN4yrUeEtZU9wO6-38" value="sends notifications" style="text;html=1;align=center;verticalAlign=middle;resizable=0;points=[];autosize=1;strokeColor=none;fillColor=none;" parent="p0RDuZN4yrUeEtZU9wO6-4" vertex="1">
          <mxGeometry x="420" y="286" width="117" height="26" as="geometry" />
        </mxCell>
        <mxCell id="p0RDuZN4yrUeEtZU9wO6-39" style="edgeStyle=orthogonalEdgeStyle;rounded=0;orthogonalLoop=1;jettySize=auto;html=1;entryX=0.912;entryY=0.059;entryDx=0;entryDy=0;entryPerimeter=0;exitX=0.776;exitY=1.005;exitDx=0;exitDy=0;exitPerimeter=0;" parent="p0RDuZN4yrUeEtZU9wO6-4" source="p0RDuZN4yrUeEtZU9wO6-30" target="p0RDuZN4yrUeEtZU9wO6-20" edge="1">
          <mxGeometry relative="1" as="geometry">
            <Array as="points" />
          </mxGeometry>
        </mxCell>
        <mxCell id="p0RDuZN4yrUeEtZU9wO6-40" value="updates data" style="text;html=1;align=center;verticalAlign=middle;resizable=0;points=[];autosize=1;strokeColor=none;fillColor=none;" parent="p0RDuZN4yrUeEtZU9wO6-4" vertex="1">
          <mxGeometry x="267" y="390" width="87" height="26" as="geometry" />
        </mxCell>
        <mxCell id="p0RDuZN4yrUeEtZU9wO6-41" style="edgeStyle=orthogonalEdgeStyle;rounded=0;orthogonalLoop=1;jettySize=auto;html=1;entryX=0.818;entryY=-0.001;entryDx=0;entryDy=0;entryPerimeter=0;" parent="p0RDuZN4yrUeEtZU9wO6-4" source="p0RDuZN4yrUeEtZU9wO6-30" target="p0RDuZN4yrUeEtZU9wO6-16" edge="1">
          <mxGeometry relative="1" as="geometry" />
        </mxCell>
        <mxCell id="p0RDuZN4yrUeEtZU9wO6-42" value="sends commands" style="text;html=1;align=center;verticalAlign=middle;resizable=0;points=[];autosize=1;strokeColor=none;fillColor=none;" parent="p0RDuZN4yrUeEtZU9wO6-4" vertex="1">
          <mxGeometry x="50" y="345" width="112" height="26" as="geometry" />
        </mxCell>
        <mxCell id="p0RDuZN4yrUeEtZU9wO6-35" value="sends data" style="text;html=1;align=center;verticalAlign=middle;whiteSpace=wrap;rounded=0;" parent="1" vertex="1">
          <mxGeometry x="1132" y="107" width="77" height="30" as="geometry" />
        </mxCell>
        <mxCell id="p0RDuZN4yrUeEtZU9wO6-34" value="&lt;font style=&quot;font-size: 11px;&quot;&gt;Updates&lt;/font&gt;" style="text;html=1;align=center;verticalAlign=middle;resizable=0;points=[];autosize=1;strokeColor=none;fillColor=none;" parent="1" vertex="1">
          <mxGeometry x="1327.1449016100178" y="464" width="59" height="26" as="geometry" />
        </mxCell>
        <UserObject label="" plantUmlData="{&#xa;  &quot;data&quot;: &quot;@startuml\npackage \&quot;Smart Irrigation System\&quot; {\n    package \&quot;Sensor Package\&quot; {\n        interface ISensorData {\n            +getSensorData()\n        }\n        class MoistureSensor implements ISensorData\n    }\n    package \&quot;Controller Package\&quot; {\n        interface IController {\n            +processSensorData()\n            +sendCommands()\n            +updateDatabase()\n            +sendNotifications()\n        }\n        class CentralController implements IController\n        CentralController --&gt; ISensorData : uses\n    }\n    package \&quot;Valve Package\&quot; {\n        interface IValveControl {\n            +openValve()\n            +closeValve()\n        }\n        class WaterValve implements IValveControl\n    }\n    package \&quot;Database Package\&quot; {\n        interface IDatabase {\n            +updateData()\n        }\n        class CloudDatabase implements IDatabase\n    }\n    package \&quot;Notification Package\&quot; {\n        interface INotification {\n            +sendNotification()\n        }\n        class NotificationService implements INotification\n    }\n    package \&quot;Mobile App Package\&quot; {\n        interface IMobileApp {\n            +displayNotification()\n        }\n        class MobileApp implements IMobileApp\n    }\n\n    CentralController --&gt; ISensorData\n    CentralController --&gt; IValveControl\n    CentralController --&gt; IDatabase\n    CentralController --&gt; INotification\n    NotificationService --&gt; IMobileApp\n}\n@enduml\n&quot;,&#xa;  &quot;format&quot;: &quot;svg&quot;&#xa;}" id="z6YAalE3nsvfvBGPq8PH-7">
          <mxCell style="shape=image;noLabel=1;verticalAlign=top;aspect=fixed;imageAspect=0;image=data:image/svg+xml,PD94bWwgdmVyc2lvbj0iMS4wIiBlbmNvZGluZz0idXMtYXNjaWkiIHN0YW5kYWxvbmU9Im5vIj8+PHN2ZyB4bWxucz0iaHR0cDovL3d3dy53My5vcmcvMjAwMC9zdmciIHhtbG5zOnhsaW5rPSJodHRwOi8vd3d3LnczLm9yZy8xOTk5L3hsaW5rIiBjb250ZW50U3R5bGVUeXBlPSJ0ZXh0L2NzcyIgaGVpZ2h0PSI4ODFweCIgcHJlc2VydmVBc3BlY3RSYXRpbz0ibm9uZSIgc3R5bGU9IndpZHRoOjgwOXB4O2hlaWdodDo4ODFweDtiYWNrZ3JvdW5kOiNGRkZGRkY7IiB2ZXJzaW9uPSIxLjEiIHZpZXdCb3g9IjAgMCA4MDkgODgxIiB3aWR0aD0iODA5cHgiIHpvb21BbmRQYW49Im1hZ25pZnkiPjxkZWZzLz48Zz48IS0tY2x1c3RlciBTbWFydCBJcnJpZ2F0aW9uIFN5c3RlbS0tPjxnIGlkPSJjbHVzdGVyX1NtYXJ0IElycmlnYXRpb24gU3lzdGVtIj48cGF0aCBkPSJNOC41LDYgTDE3Mi41LDYgQTMuNzUsMy43NSAwIDAgMSAxNzUsOC41IEwxODIsMjYuOTg0NCBMNzk5LjUsMjYuOTg0NCBBMi41LDIuNSAwIDAgMSA4MDIsMjkuNDg0NCBMODAyLDg3MS41IEEyLjUsMi41IDAgMCAxIDc5OS41LDg3NCBMOC41LDg3NCBBMi41LDIuNSAwIDAgMSA2LDg3MS41IEw2LDguNSBBMi41LDIuNSAwIDAgMSA4LjUsNiAiIGZpbGw9Im5vbmUiIHN0eWxlPSJzdHJva2U6IzAwMDAwMDtzdHJva2Utd2lkdGg6MS41OyIvPjxsaW5lIHN0eWxlPSJzdHJva2U6IzAwMDAwMDtzdHJva2Utd2lkdGg6MS41OyIgeDE9IjYiIHgyPSIxODIiIHkxPSIyNi45ODQ0IiB5Mj0iMjYuOTg0NCIvPjx0ZXh0IGZpbGw9IiMwMDAwMDAiIGZvbnQtZmFtaWx5PSJzYW5zLXNlcmlmIiBmb250LXNpemU9IjE0IiBmb250LXdlaWdodD0iYm9sZCIgbGVuZ3RoQWRqdXN0PSJzcGFjaW5nIiB0ZXh0TGVuZ3RoPSIxNjMiIHg9IjEwIiB5PSIyMS4yMzQ0Ij5TbWFydCBJcnJpZ2F0aW9uIFN5c3RlbTwvdGV4dD48L2c+PCEtLWNsdXN0ZXIgU2Vuc29yIFBhY2thZ2UtLT48ZyBpZD0iY2x1c3Rlcl9TZW5zb3IgUGFja2FnZSI+PHBhdGggZD0iTTMyLjUsMzY3LjUgTDEzMS41LDM2Ny41IEEzLjc1LDMuNzUgMCAwIDEgMTM0LDM3MCBMMTQxLDM4OC40ODQ0IEwxOTMuNSwzODguNDg0NCBBMi41LDIuNSAwIDAgMSAxOTYsMzkwLjk4NDQgTDE5Niw1OTMuNSBBMi41LDIuNSAwIDAgMSAxOTMuNSw1OTYgTDMyLjUsNTk2IEEyLjUsMi41IDAgMCAxIDMwLDU5My41IEwzMCwzNzAgQTIuNSwyLjUgMCAwIDEgMzIuNSwzNjcuNSAiIGZpbGw9Im5vbmUiIHN0eWxlPSJzdHJva2U6IzAwMDAwMDtzdHJva2Utd2lkdGg6MS41OyIvPjxsaW5lIHN0eWxlPSJzdHJva2U6IzAwMDAwMDtzdHJva2Utd2lkdGg6MS41OyIgeDE9IjMwIiB4Mj0iMTQxIiB5MT0iMzg4LjQ4NDQiIHkyPSIzODguNDg0NCIvPjx0ZXh0IGZpbGw9IiMwMDAwMDAiIGZvbnQtZmFtaWx5PSJzYW5zLXNlcmlmIiBmb250LXNpemU9IjE0IiBmb250LXdlaWdodD0iYm9sZCIgbGVuZ3RoQWRqdXN0PSJzcGFjaW5nIiB0ZXh0TGVuZ3RoPSI5OCIgeD0iMzQiIHk9IjM4Mi43MzQ0Ij5TZW5zb3IgUGFja2FnZTwvdGV4dD48L2c+PCEtLWNsdXN0ZXIgQ29udHJvbGxlciBQYWNrYWdlLS0+PGcgaWQ9ImNsdXN0ZXJfQ29udHJvbGxlciBQYWNrYWdlIj48cGF0aCBkPSJNMjAzLjUsNDcgTDMzMC41LDQ3IEEzLjc1LDMuNzUgMCAwIDEgMzMzLDQ5LjUgTDM0MCw2Ny45ODQ0IEwzOTIuNSw2Ny45ODQ0IEEyLjUsMi41IDAgMCAxIDM5NSw3MC40ODQ0IEwzOTUsMzEwLjUgQTIuNSwyLjUgMCAwIDEgMzkyLjUsMzEzIEwyMDMuNSwzMTMgQTIuNSwyLjUgMCAwIDEgMjAxLDMxMC41IEwyMDEsNDkuNSBBMi41LDIuNSAwIDAgMSAyMDMuNSw0NyAiIGZpbGw9Im5vbmUiIHN0eWxlPSJzdHJva2U6IzAwMDAwMDtzdHJva2Utd2lkdGg6MS41OyIvPjxsaW5lIHN0eWxlPSJzdHJva2U6IzAwMDAwMDtzdHJva2Utd2lkdGg6MS41OyIgeDE9IjIwMSIgeDI9IjM0MCIgeTE9IjY3Ljk4NDQiIHkyPSI2Ny45ODQ0Ii8+PHRleHQgZmlsbD0iIzAwMDAwMCIgZm9udC1mYW1pbHk9InNhbnMtc2VyaWYiIGZvbnQtc2l6ZT0iMTQiIGZvbnQtd2VpZ2h0PSJib2xkIiBsZW5ndGhBZGp1c3Q9InNwYWNpbmciIHRleHRMZW5ndGg9IjEyNiIgeD0iMjA1IiB5PSI2Mi4yMzQ0Ij5Db250cm9sbGVyIFBhY2thZ2U8L3RleHQ+PC9nPjwhLS1jbHVzdGVyIFZhbHZlIFBhY2thZ2UtLT48ZyBpZD0iY2x1c3Rlcl9WYWx2ZSBQYWNrYWdlIj48cGF0aCBkPSJNMjIyLjUsMzYwIEwzMTQuNSwzNjAgQTMuNzUsMy43NSAwIDAgMSAzMTcsMzYyLjUgTDMyNCwzODAuOTg0NCBMMzczLjUsMzgwLjk4NDQgQTIuNSwyLjUgMCAwIDEgMzc2LDM4My40ODQ0IEwzNzYsNTkzLjUgQTIuNSwyLjUgMCAwIDEgMzczLjUsNTk2IEwyMjIuNSw1OTYgQTIuNSwyLjUgMCAwIDEgMjIwLDU5My41IEwyMjAsMzYyLjUgQTIuNSwyLjUgMCAwIDEgMjIyLjUsMzYwICIgZmlsbD0ibm9uZSIgc3R5bGU9InN0cm9rZTojMDAwMDAwO3N0cm9rZS13aWR0aDoxLjU7Ii8+PGxpbmUgc3R5bGU9InN0cm9rZTojMDAwMDAwO3N0cm9rZS13aWR0aDoxLjU7IiB4MT0iMjIwIiB4Mj0iMzI0IiB5MT0iMzgwLjk4NDQiIHkyPSIzODAuOTg0NCIvPjx0ZXh0IGZpbGw9IiMwMDAwMDAiIGZvbnQtZmFtaWx5PSJzYW5zLXNlcmlmIiBmb250LXNpemU9IjE0IiBmb250LXdlaWdodD0iYm9sZCIgbGVuZ3RoQWRqdXN0PSJzcGFjaW5nIiB0ZXh0TGVuZ3RoPSI5MSIgeD0iMjI0IiB5PSIzNzUuMjM0NCI+VmFsdmUgUGFja2FnZTwvdGV4dD48L2c+PCEtLWNsdXN0ZXIgRGF0YWJhc2UgUGFja2FnZS0tPjxnIGlkPSJjbHVzdGVyX0RhdGFiYXNlIFBhY2thZ2UiPjxwYXRoIGQ9Ik00MDIuNSwzNjcuNSBMNTE1LjUsMzY3LjUgQTMuNzUsMy43NSAwIDAgMSA1MTgsMzcwIEw1MjUsMzg4LjQ4NDQgTDU1My41LDM4OC40ODQ0IEEyLjUsMi41IDAgMCAxIDU1NiwzOTAuOTg0NCBMNTU2LDU5My41IEEyLjUsMi41IDAgMCAxIDU1My41LDU5NiBMNDAyLjUsNTk2IEEyLjUsMi41IDAgMCAxIDQwMCw1OTMuNSBMNDAwLDM3MCBBMi41LDIuNSAwIDAgMSA0MDIuNSwzNjcuNSAiIGZpbGw9Im5vbmUiIHN0eWxlPSJzdHJva2U6IzAwMDAwMDtzdHJva2Utd2lkdGg6MS41OyIvPjxsaW5lIHN0eWxlPSJzdHJva2U6IzAwMDAwMDtzdHJva2Utd2lkdGg6MS41OyIgeDE9IjQwMCIgeDI9IjUyNSIgeTE9IjM4OC40ODQ0IiB5Mj0iMzg4LjQ4NDQiLz48dGV4dCBmaWxsPSIjMDAwMDAwIiBmb250LWZhbWlseT0ic2Fucy1zZXJpZiIgZm9udC1zaXplPSIxNCIgZm9udC13ZWlnaHQ9ImJvbGQiIGxlbmd0aEFkanVzdD0ic3BhY2luZyIgdGV4dExlbmd0aD0iMTEyIiB4PSI0MDQiIHk9IjM4Mi43MzQ0Ij5EYXRhYmFzZSBQYWNrYWdlPC90ZXh0PjwvZz48IS0tY2x1c3RlciBOb3RpZmljYXRpb24gUGFja2FnZS0tPjxnIGlkPSJjbHVzdGVyX05vdGlmaWNhdGlvbiBQYWNrYWdlIj48cGF0aCBkPSJNNTgyLjUsMzY3LjUgTDcyMy41LDM2Ny41IEEzLjc1LDMuNzUgMCAwIDEgNzI2LDM3MCBMNzMzLDM4OC40ODQ0IEw3NzUuNSwzODguNDg0NCBBMi41LDIuNSAwIDAgMSA3NzgsMzkwLjk4NDQgTDc3OCw1OTMuNSBBMi41LDIuNSAwIDAgMSA3NzUuNSw1OTYgTDU4Mi41LDU5NiBBMi41LDIuNSAwIDAgMSA1ODAsNTkzLjUgTDU4MCwzNzAgQTIuNSwyLjUgMCAwIDEgNTgyLjUsMzY3LjUgIiBmaWxsPSJub25lIiBzdHlsZT0ic3Ryb2tlOiMwMDAwMDA7c3Ryb2tlLXdpZHRoOjEuNTsiLz48bGluZSBzdHlsZT0ic3Ryb2tlOiMwMDAwMDA7c3Ryb2tlLXdpZHRoOjEuNTsiIHgxPSI1ODAiIHgyPSI3MzMiIHkxPSIzODguNDg0NCIgeTI9IjM4OC40ODQ0Ii8+PHRleHQgZmlsbD0iIzAwMDAwMCIgZm9udC1mYW1pbHk9InNhbnMtc2VyaWYiIGZvbnQtc2l6ZT0iMTQiIGZvbnQtd2VpZ2h0PSJib2xkIiBsZW5ndGhBZGp1c3Q9InNwYWNpbmciIHRleHRMZW5ndGg9IjE0MCIgeD0iNTg0IiB5PSIzODIuNzM0NCI+Tm90aWZpY2F0aW9uIFBhY2thZ2U8L3RleHQ+PC9nPjwhLS1jbHVzdGVyIE1vYmlsZSBBcHAgUGFja2FnZS0tPjxnIGlkPSJjbHVzdGVyX01vYmlsZSBBcHAgUGFja2FnZSI+PHBhdGggZD0iTTU3Mi41LDYyOSBMNjk5LjUsNjI5IEEzLjc1LDMuNzUgMCAwIDEgNzAyLDYzMS41IEw3MDksNjQ5Ljk4NDQgTDc3NS41LDY0OS45ODQ0IEEyLjUsMi41IDAgMCAxIDc3OCw2NTIuNDg0NCBMNzc4LDg0Ny41IEEyLjUsMi41IDAgMCAxIDc3NS41LDg1MCBMNTcyLjUsODUwIEEyLjUsMi41IDAgMCAxIDU3MCw4NDcuNSBMNTcwLDYzMS41IEEyLjUsMi41IDAgMCAxIDU3Mi41LDYyOSAiIGZpbGw9Im5vbmUiIHN0eWxlPSJzdHJva2U6IzAwMDAwMDtzdHJva2Utd2lkdGg6MS41OyIvPjxsaW5lIHN0eWxlPSJzdHJva2U6IzAwMDAwMDtzdHJva2Utd2lkdGg6MS41OyIgeDE9IjU3MCIgeDI9IjcwOSIgeTE9IjY0OS45ODQ0IiB5Mj0iNjQ5Ljk4NDQiLz48dGV4dCBmaWxsPSIjMDAwMDAwIiBmb250LWZhbWlseT0ic2Fucy1zZXJpZiIgZm9udC1zaXplPSIxNCIgZm9udC13ZWlnaHQ9ImJvbGQiIGxlbmd0aEFkanVzdD0ic3BhY2luZyIgdGV4dExlbmd0aD0iMTI2IiB4PSI1NzQiIHk9IjY0NC4yMzQ0Ij5Nb2JpbGUgQXBwIFBhY2thZ2U8L3RleHQ+PC9nPjwhLS1jbGFzcyBJU2Vuc29yRGF0YS0tPjxnIGlkPSJlbGVtX0lTZW5zb3JEYXRhIj48cmVjdCBjb2RlTGluZT0iMyIgZmlsbD0iI0YxRjFGMSIgaGVpZ2h0PSI2Mi45ODQ0IiBpZD0iSVNlbnNvckRhdGEiIHJ4PSIyLjUiIHJ5PSIyLjUiIHN0eWxlPSJzdHJva2U6IzE4MTgxODtzdHJva2Utd2lkdGg6MC41OyIgd2lkdGg9IjEzMyIgeD0iNDYuNSIgeT0iNDAwLjUiLz48ZWxsaXBzZSBjeD0iNzIuMyIgY3k9IjQxNi41IiBmaWxsPSIjQjRBN0U1IiByeD0iMTEiIHJ5PSIxMSIgc3R5bGU9InN0cm9rZTojMTgxODE4O3N0cm9rZS13aWR0aDoxLjA7Ii8+PHBhdGggZD0iTTc1LjQyNSw0MjIuNSBMNzUuNDI1LDQyMC43NSBMNzMuMyw0MjAuNzUgUTczLjMsNDIwLjc1IDczLjMsNDEyLjkzNzUgTDc1LjQyNSw0MTIuOTM3NSBMNzUuNDI1LDQxMS4xODc1IEw2OS40MjUsNDExLjE4NzUgTDY5LjQyNSw0MTIuOTM3NSBMNzEuNTUsNDEyLjkzNzUgUTcxLjU1LDQxMi45Mzc1IDcxLjU1LDQyMC43NSBMNjkuNDI1LDQyMC43NSBMNjkuNDI1LDQyMi41IEw3NS40MjUsNDIyLjUgWiAiIGZpbGw9IiMwMDAwMDAiLz48dGV4dCBmaWxsPSIjMDAwMDAwIiBmb250LWZhbWlseT0ic2Fucy1zZXJpZiIgZm9udC1zaXplPSIxNCIgZm9udC1zdHlsZT0iaXRhbGljIiBsZW5ndGhBZGp1c3Q9InNwYWNpbmciIHRleHRMZW5ndGg9Ijc3IiB4PSI4OC43IiB5PSI0MjIuMjQyMiI+SVNlbnNvckRhdGE8L3RleHQ+PGxpbmUgc3R5bGU9InN0cm9rZTojMTgxODE4O3N0cm9rZS13aWR0aDowLjU7IiB4MT0iNDcuNSIgeDI9IjE3OC41IiB5MT0iNDMyLjUiIHkyPSI0MzIuNSIvPjxsaW5lIHN0eWxlPSJzdHJva2U6IzE4MTgxODtzdHJva2Utd2lkdGg6MC41OyIgeDE9IjQ3LjUiIHgyPSIxNzguNSIgeTE9IjQ0MC41IiB5Mj0iNDQwLjUiLz48ZWxsaXBzZSBjeD0iNTcuNSIgY3k9IjQ1My40OTIyIiBmaWxsPSIjODRCRTg0IiByeD0iMyIgcnk9IjMiIHN0eWxlPSJzdHJva2U6IzAzODA0ODtzdHJva2Utd2lkdGg6MS4wOyIvPjx0ZXh0IGZpbGw9IiMwMDAwMDAiIGZvbnQtZmFtaWx5PSJzYW5zLXNlcmlmIiBmb250LXNpemU9IjE0IiBsZW5ndGhBZGp1c3Q9InNwYWNpbmciIHRleHRMZW5ndGg9IjEwNyIgeD0iNjYuNSIgeT0iNDU3LjczNDQiPmdldFNlbnNvckRhdGEoKTwvdGV4dD48L2c+PCEtLWNsYXNzIE1vaXN0dXJlU2Vuc29yLS0+PGcgaWQ9ImVsZW1fTW9pc3R1cmVTZW5zb3IiPjxyZWN0IGNvZGVMaW5lPSI2IiBmaWxsPSIjRjFGMUYxIiBoZWlnaHQ9IjQ4IiBpZD0iTW9pc3R1cmVTZW5zb3IiIHJ4PSIyLjUiIHJ5PSIyLjUiIHN0eWxlPSJzdHJva2U6IzE4MTgxODtzdHJva2Utd2lkdGg6MC41OyIgd2lkdGg9IjEzMCIgeD0iNDgiIHk9IjUzMiIvPjxlbGxpcHNlIGN4PSI2MyIgY3k9IjU0OCIgZmlsbD0iI0FERDFCMiIgcng9IjExIiByeT0iMTEiIHN0eWxlPSJzdHJva2U6IzE4MTgxODtzdHJva2Utd2lkdGg6MS4wOyIvPjxwYXRoIGQ9Ik02MC42MjUsNTUyLjI1IEw2MC42MjUsNTU0IEw2NS41NjI1LDU1NCBMNjUuNTYyNSw1NTIuMjUgTDYwLjYyNSw1NTIuMjUgWiBNNjEuMzEyNSw1NTIuOTM3NSBRNjEuMzEyNSw1NTIuOTM3NSA2MS4zMTI1LDU0My43NSBMNTkuNTYyNSw1NDMuNzUgUTU5LjU2MjUsNTQzLjc1IDU5LjU2MjUsNTUyLjkzNzUgTDYxLjMxMjUsNTUyLjkzNzUgWiBNNjQuODc1LDU1Mi45Mzc1IEw2Ni42MjUsNTUyLjkzNzUgUTY2LjYyNSw1NTIuOTM3NSA2Ni42MjUsNTUwLjEyNSBMNjQuODc1LDU1MC4xMjUgUTY0Ljg3NSw1NTAuMTI1IDY0Ljg3NSw1NTIuOTM3NSBaIE02NC44NzUsNTQzLjc1IFE2NC44NzUsNTQzLjc1IDY0Ljg3NSw1NDYuNTYyNSBMNjYuNjI1LDU0Ni41NjI1IFE2Ni42MjUsNTQ2LjU2MjUgNjYuNjI1LDU0My43NSBMNjQuODc1LDU0My43NSBaIE02MC42MjUsNTQ0LjQzNzUgTDY1LjU2MjUsNTQ0LjQzNzUgTDY1LjU2MjUsNTQyLjY4NzUgTDYwLjYyNSw1NDIuNjg3NSBMNjAuNjI1LDU0NC40Mzc1IFogIiBmaWxsPSIjMDAwMDAwIi8+PHRleHQgZmlsbD0iIzAwMDAwMCIgZm9udC1mYW1pbHk9InNhbnMtc2VyaWYiIGZvbnQtc2l6ZT0iMTQiIGxlbmd0aEFkanVzdD0ic3BhY2luZyIgdGV4dExlbmd0aD0iOTgiIHg9Ijc3IiB5PSI1NTMuNzQyMiI+TW9pc3R1cmVTZW5zb3I8L3RleHQ+PGxpbmUgc3R5bGU9InN0cm9rZTojMTgxODE4O3N0cm9rZS13aWR0aDowLjU7IiB4MT0iNDkiIHgyPSIxNzciIHkxPSI1NjQiIHkyPSI1NjQiLz48bGluZSBzdHlsZT0ic3Ryb2tlOiMxODE4MTg7c3Ryb2tlLXdpZHRoOjAuNTsiIHgxPSI0OSIgeDI9IjE3NyIgeTE9IjU3MiIgeTI9IjU3MiIvPjwvZz48IS0tY2xhc3MgSUNvbnRyb2xsZXItLT48ZyBpZD0iZWxlbV9JQ29udHJvbGxlciI+PHJlY3QgY29kZUxpbmU9IjkiIGZpbGw9IiNGMUYxRjEiIGhlaWdodD0iMTA3LjkzNzUiIGlkPSJJQ29udHJvbGxlciIgcng9IjIuNSIgcnk9IjIuNSIgc3R5bGU9InN0cm9rZTojMTgxODE4O3N0cm9rZS13aWR0aDowLjU7IiB3aWR0aD0iMTYxIiB4PSIyMTcuNSIgeT0iODAiLz48ZWxsaXBzZSBjeD0iMjU1LjkiIGN5PSI5NiIgZmlsbD0iI0I0QTdFNSIgcng9IjExIiByeT0iMTEiIHN0eWxlPSJzdHJva2U6IzE4MTgxODtzdHJva2Utd2lkdGg6MS4wOyIvPjxwYXRoIGQ9Ik0yNTkuMDI1LDEwMiBMMjU5LjAyNSwxMDAuMjUgTDI1Ni45LDEwMC4yNSBRMjU2LjksMTAwLjI1IDI1Ni45LDkyLjQzNzUgTDI1OS4wMjUsOTIuNDM3NSBMMjU5LjAyNSw5MC42ODc1IEwyNTMuMDI1LDkwLjY4NzUgTDI1My4wMjUsOTIuNDM3NSBMMjU1LjE1LDkyLjQzNzUgUTI1NS4xNSw5Mi40Mzc1IDI1NS4xNSwxMDAuMjUgTDI1My4wMjUsMTAwLjI1IEwyNTMuMDI1LDEwMiBMMjU5LjAyNSwxMDIgWiAiIGZpbGw9IiMwMDAwMDAiLz48dGV4dCBmaWxsPSIjMDAwMDAwIiBmb250LWZhbWlseT0ic2Fucy1zZXJpZiIgZm9udC1zaXplPSIxNCIgZm9udC1zdHlsZT0iaXRhbGljIiBsZW5ndGhBZGp1c3Q9InNwYWNpbmciIHRleHRMZW5ndGg9Ijc3IiB4PSIyNzUuMSIgeT0iMTAxLjc0MjIiPklDb250cm9sbGVyPC90ZXh0PjxsaW5lIHN0eWxlPSJzdHJva2U6IzE4MTgxODtzdHJva2Utd2lkdGg6MC41OyIgeDE9IjIxOC41IiB4Mj0iMzc3LjUiIHkxPSIxMTIiIHkyPSIxMTIiLz48bGluZSBzdHlsZT0ic3Ryb2tlOiMxODE4MTg7c3Ryb2tlLXdpZHRoOjAuNTsiIHgxPSIyMTguNSIgeDI9IjM3Ny41IiB5MT0iMTIwIiB5Mj0iMTIwIi8+PGVsbGlwc2UgY3g9IjIyOC41IiBjeT0iMTMyLjk5MjIiIGZpbGw9IiM4NEJFODQiIHJ4PSIzIiByeT0iMyIgc3R5bGU9InN0cm9rZTojMDM4MDQ4O3N0cm9rZS13aWR0aDoxLjA7Ii8+PHRleHQgZmlsbD0iIzAwMDAwMCIgZm9udC1mYW1pbHk9InNhbnMtc2VyaWYiIGZvbnQtc2l6ZT0iMTQiIGxlbmd0aEFkanVzdD0ic3BhY2luZyIgdGV4dExlbmd0aD0iMTM1IiB4PSIyMzcuNSIgeT0iMTM3LjIzNDQiPnByb2Nlc3NTZW5zb3JEYXRhKCk8L3RleHQ+PGVsbGlwc2UgY3g9IjIyOC41IiBjeT0iMTQ3Ljk3NjYiIGZpbGw9IiM4NEJFODQiIHJ4PSIzIiByeT0iMyIgc3R5bGU9InN0cm9rZTojMDM4MDQ4O3N0cm9rZS13aWR0aDoxLjA7Ii8+PHRleHQgZmlsbD0iIzAwMDAwMCIgZm9udC1mYW1pbHk9InNhbnMtc2VyaWYiIGZvbnQtc2l6ZT0iMTQiIGxlbmd0aEFkanVzdD0ic3BhY2luZyIgdGV4dExlbmd0aD0iMTAyIiB4PSIyMzcuNSIgeT0iMTUyLjIxODgiPnNlbmRDb21tYW5kcygpPC90ZXh0PjxlbGxpcHNlIGN4PSIyMjguNSIgY3k9IjE2Mi45NjA5IiBmaWxsPSIjODRCRTg0IiByeD0iMyIgcnk9IjMiIHN0eWxlPSJzdHJva2U6IzAzODA0ODtzdHJva2Utd2lkdGg6MS4wOyIvPjx0ZXh0IGZpbGw9IiMwMDAwMDAiIGZvbnQtZmFtaWx5PSJzYW5zLXNlcmlmIiBmb250LXNpemU9IjE0IiBsZW5ndGhBZGp1c3Q9InNwYWNpbmciIHRleHRMZW5ndGg9IjExNCIgeD0iMjM3LjUiIHk9IjE2Ny4yMDMxIj51cGRhdGVEYXRhYmFzZSgpPC90ZXh0PjxlbGxpcHNlIGN4PSIyMjguNSIgY3k9IjE3Ny45NDUzIiBmaWxsPSIjODRCRTg0IiByeD0iMyIgcnk9IjMiIHN0eWxlPSJzdHJva2U6IzAzODA0ODtzdHJva2Utd2lkdGg6MS4wOyIvPjx0ZXh0IGZpbGw9IiMwMDAwMDAiIGZvbnQtZmFtaWx5PSJzYW5zLXNlcmlmIiBmb250LXNpemU9IjE0IiBsZW5ndGhBZGp1c3Q9InNwYWNpbmciIHRleHRMZW5ndGg9IjEzNSIgeD0iMjM3LjUiIHk9IjE4Mi4xODc1Ij5zZW5kTm90aWZpY2F0aW9ucygpPC90ZXh0PjwvZz48IS0tY2xhc3MgQ2VudHJhbENvbnRyb2xsZXItLT48ZyBpZD0iZWxlbV9DZW50cmFsQ29udHJvbGxlciI+PHJlY3QgY29kZUxpbmU9IjE1IiBmaWxsPSIjRjFGMUYxIiBoZWlnaHQ9IjQ4IiBpZD0iQ2VudHJhbENvbnRyb2xsZXIiIHJ4PSIyLjUiIHJ5PSIyLjUiIHN0eWxlPSJzdHJva2U6IzE4MTgxODtzdHJva2Utd2lkdGg6MC41OyIgd2lkdGg9IjE1MSIgeD0iMjIyLjUiIHk9IjI0OSIvPjxlbGxpcHNlIGN4PSIyMzcuNSIgY3k9IjI2NSIgZmlsbD0iI0FERDFCMiIgcng9IjExIiByeT0iMTEiIHN0eWxlPSJzdHJva2U6IzE4MTgxODtzdHJva2Utd2lkdGg6MS4wOyIvPjxwYXRoIGQ9Ik0yMzUuMTI1LDI2OS4yNSBMMjM1LjEyNSwyNzEgTDI0MC4wNjI1LDI3MSBMMjQwLjA2MjUsMjY5LjI1IEwyMzUuMTI1LDI2OS4yNSBaIE0yMzUuODEyNSwyNjkuOTM3NSBRMjM1LjgxMjUsMjY5LjkzNzUgMjM1LjgxMjUsMjYwLjc1IEwyMzQuMDYyNSwyNjAuNzUgUTIzNC4wNjI1LDI2MC43NSAyMzQuMDYyNSwyNjkuOTM3NSBMMjM1LjgxMjUsMjY5LjkzNzUgWiBNMjM5LjM3NSwyNjkuOTM3NSBMMjQxLjEyNSwyNjkuOTM3NSBRMjQxLjEyNSwyNjkuOTM3NSAyNDEuMTI1LDI2Ny4xMjUgTDIzOS4zNzUsMjY3LjEyNSBRMjM5LjM3NSwyNjcuMTI1IDIzOS4zNzUsMjY5LjkzNzUgWiBNMjM5LjM3NSwyNjAuNzUgUTIzOS4zNzUsMjYwLjc1IDIzOS4zNzUsMjYzLjU2MjUgTDI0MS4xMjUsMjYzLjU2MjUgUTI0MS4xMjUsMjYzLjU2MjUgMjQxLjEyNSwyNjAuNzUgTDIzOS4zNzUsMjYwLjc1IFogTTIzNS4xMjUsMjYxLjQzNzUgTDI0MC4wNjI1LDI2MS40Mzc1IEwyNDAuMDYyNSwyNTkuNjg3NSBMMjM1LjEyNSwyNTkuNjg3NSBMMjM1LjEyNSwyNjEuNDM3NSBaICIgZmlsbD0iIzAwMDAwMCIvPjx0ZXh0IGZpbGw9IiMwMDAwMDAiIGZvbnQtZmFtaWx5PSJzYW5zLXNlcmlmIiBmb250LXNpemU9IjE0IiBsZW5ndGhBZGp1c3Q9InNwYWNpbmciIHRleHRMZW5ndGg9IjExOSIgeD0iMjUxLjUiIHk9IjI3MC43NDIyIj5DZW50cmFsQ29udHJvbGxlcjwvdGV4dD48bGluZSBzdHlsZT0ic3Ryb2tlOiMxODE4MTg7c3Ryb2tlLXdpZHRoOjAuNTsiIHgxPSIyMjMuNSIgeDI9IjM3Mi41IiB5MT0iMjgxIiB5Mj0iMjgxIi8+PGxpbmUgc3R5bGU9InN0cm9rZTojMTgxODE4O3N0cm9rZS13aWR0aDowLjU7IiB4MT0iMjIzLjUiIHgyPSIzNzIuNSIgeTE9IjI4OSIgeTI9IjI4OSIvPjwvZz48IS0tY2xhc3MgSVZhbHZlQ29udHJvbC0tPjxnIGlkPSJlbGVtX0lWYWx2ZUNvbnRyb2wiPjxyZWN0IGNvZGVMaW5lPSIxOSIgZmlsbD0iI0YxRjFGMSIgaGVpZ2h0PSI3Ny45Njg4IiBpZD0iSVZhbHZlQ29udHJvbCIgcng9IjIuNSIgcnk9IjIuNSIgc3R5bGU9InN0cm9rZTojMTgxODE4O3N0cm9rZS13aWR0aDowLjU7IiB3aWR0aD0iMTIzIiB4PSIyMzYuNSIgeT0iMzkzIi8+PGVsbGlwc2UgY3g9IjI1MS41IiBjeT0iNDA5IiBmaWxsPSIjQjRBN0U1IiByeD0iMTEiIHJ5PSIxMSIgc3R5bGU9InN0cm9rZTojMTgxODE4O3N0cm9rZS13aWR0aDoxLjA7Ii8+PHBhdGggZD0iTTI1NC42MjUsNDE1IEwyNTQuNjI1LDQxMy4yNSBMMjUyLjUsNDEzLjI1IFEyNTIuNSw0MTMuMjUgMjUyLjUsNDA1LjQzNzUgTDI1NC42MjUsNDA1LjQzNzUgTDI1NC42MjUsNDAzLjY4NzUgTDI0OC42MjUsNDAzLjY4NzUgTDI0OC42MjUsNDA1LjQzNzUgTDI1MC43NSw0MDUuNDM3NSBRMjUwLjc1LDQwNS40Mzc1IDI1MC43NSw0MTMuMjUgTDI0OC42MjUsNDEzLjI1IEwyNDguNjI1LDQxNSBMMjU0LjYyNSw0MTUgWiAiIGZpbGw9IiMwMDAwMDAiLz48dGV4dCBmaWxsPSIjMDAwMDAwIiBmb250LWZhbWlseT0ic2Fucy1zZXJpZiIgZm9udC1zaXplPSIxNCIgZm9udC1zdHlsZT0iaXRhbGljIiBsZW5ndGhBZGp1c3Q9InNwYWNpbmciIHRleHRMZW5ndGg9IjkxIiB4PSIyNjUuNSIgeT0iNDE0Ljc0MjIiPklWYWx2ZUNvbnRyb2w8L3RleHQ+PGxpbmUgc3R5bGU9InN0cm9rZTojMTgxODE4O3N0cm9rZS13aWR0aDowLjU7IiB4MT0iMjM3LjUiIHgyPSIzNTguNSIgeTE9IjQyNSIgeTI9IjQyNSIvPjxsaW5lIHN0eWxlPSJzdHJva2U6IzE4MTgxODtzdHJva2Utd2lkdGg6MC41OyIgeDE9IjIzNy41IiB4Mj0iMzU4LjUiIHkxPSI0MzMiIHkyPSI0MzMiLz48ZWxsaXBzZSBjeD0iMjQ3LjUiIGN5PSI0NDUuOTkyMiIgZmlsbD0iIzg0QkU4NCIgcng9IjMiIHJ5PSIzIiBzdHlsZT0ic3Ryb2tlOiMwMzgwNDg7c3Ryb2tlLXdpZHRoOjEuMDsiLz48dGV4dCBmaWxsPSIjMDAwMDAwIiBmb250LWZhbWlseT0ic2Fucy1zZXJpZiIgZm9udC1zaXplPSIxNCIgbGVuZ3RoQWRqdXN0PSJzcGFjaW5nIiB0ZXh0TGVuZ3RoPSI3OSIgeD0iMjU2LjUiIHk9IjQ1MC4yMzQ0Ij5vcGVuVmFsdmUoKTwvdGV4dD48ZWxsaXBzZSBjeD0iMjQ3LjUiIGN5PSI0NjAuOTc2NiIgZmlsbD0iIzg0QkU4NCIgcng9IjMiIHJ5PSIzIiBzdHlsZT0ic3Ryb2tlOiMwMzgwNDg7c3Ryb2tlLXdpZHRoOjEuMDsiLz48dGV4dCBmaWxsPSIjMDAwMDAwIiBmb250LWZhbWlseT0ic2Fucy1zZXJpZiIgZm9udC1zaXplPSIxNCIgbGVuZ3RoQWRqdXN0PSJzcGFjaW5nIiB0ZXh0TGVuZ3RoPSI4NiIgeD0iMjU2LjUiIHk9IjQ2NS4yMTg4Ij5jbG9zZVZhbHZlKCk8L3RleHQ+PC9nPjwhLS1jbGFzcyBXYXRlclZhbHZlLS0+PGcgaWQ9ImVsZW1fV2F0ZXJWYWx2ZSI+PHJlY3QgY29kZUxpbmU9IjIzIiBmaWxsPSIjRjFGMUYxIiBoZWlnaHQ9IjQ4IiBpZD0iV2F0ZXJWYWx2ZSIgcng9IjIuNSIgcnk9IjIuNSIgc3R5bGU9InN0cm9rZTojMTgxODE4O3N0cm9rZS13aWR0aDowLjU7IiB3aWR0aD0iMTAyIiB4PSIyNDciIHk9IjUzMiIvPjxlbGxpcHNlIGN4PSIyNjIiIGN5PSI1NDgiIGZpbGw9IiNBREQxQjIiIHJ4PSIxMSIgcnk9IjExIiBzdHlsZT0ic3Ryb2tlOiMxODE4MTg7c3Ryb2tlLXdpZHRoOjEuMDsiLz48cGF0aCBkPSJNMjU5LjYyNSw1NTIuMjUgTDI1OS42MjUsNTU0IEwyNjQuNTYyNSw1NTQgTDI2NC41NjI1LDU1Mi4yNSBMMjU5LjYyNSw1NTIuMjUgWiBNMjYwLjMxMjUsNTUyLjkzNzUgUTI2MC4zMTI1LDU1Mi45Mzc1IDI2MC4zMTI1LDU0My43NSBMMjU4LjU2MjUsNTQzLjc1IFEyNTguNTYyNSw1NDMuNzUgMjU4LjU2MjUsNTUyLjkzNzUgTDI2MC4zMTI1LDU1Mi45Mzc1IFogTTI2My44NzUsNTUyLjkzNzUgTDI2NS42MjUsNTUyLjkzNzUgUTI2NS42MjUsNTUyLjkzNzUgMjY1LjYyNSw1NTAuMTI1IEwyNjMuODc1LDU1MC4xMjUgUTI2My44NzUsNTUwLjEyNSAyNjMuODc1LDU1Mi45Mzc1IFogTTI2My44NzUsNTQzLjc1IFEyNjMuODc1LDU0My43NSAyNjMuODc1LDU0Ni41NjI1IEwyNjUuNjI1LDU0Ni41NjI1IFEyNjUuNjI1LDU0Ni41NjI1IDI2NS42MjUsNTQzLjc1IEwyNjMuODc1LDU0My43NSBaIE0yNTkuNjI1LDU0NC40Mzc1IEwyNjQuNTYyNSw1NDQuNDM3NSBMMjY0LjU2MjUsNTQyLjY4NzUgTDI1OS42MjUsNTQyLjY4NzUgTDI1OS42MjUsNTQ0LjQzNzUgWiAiIGZpbGw9IiMwMDAwMDAiLz48dGV4dCBmaWxsPSIjMDAwMDAwIiBmb250LWZhbWlseT0ic2Fucy1zZXJpZiIgZm9udC1zaXplPSIxNCIgbGVuZ3RoQWRqdXN0PSJzcGFjaW5nIiB0ZXh0TGVuZ3RoPSI3MCIgeD0iMjc2IiB5PSI1NTMuNzQyMiI+V2F0ZXJWYWx2ZTwvdGV4dD48bGluZSBzdHlsZT0ic3Ryb2tlOiMxODE4MTg7c3Ryb2tlLXdpZHRoOjAuNTsiIHgxPSIyNDgiIHgyPSIzNDgiIHkxPSI1NjQiIHkyPSI1NjQiLz48bGluZSBzdHlsZT0ic3Ryb2tlOiMxODE4MTg7c3Ryb2tlLXdpZHRoOjAuNTsiIHgxPSIyNDgiIHgyPSIzNDgiIHkxPSI1NzIiIHkyPSI1NzIiLz48L2c+PCEtLWNsYXNzIElEYXRhYmFzZS0tPjxnIGlkPSJlbGVtX0lEYXRhYmFzZSI+PHJlY3QgY29kZUxpbmU9IjI2IiBmaWxsPSIjRjFGMUYxIiBoZWlnaHQ9IjYyLjk4NDQiIGlkPSJJRGF0YWJhc2UiIHJ4PSIyLjUiIHJ5PSIyLjUiIHN0eWxlPSJzdHJva2U6IzE4MTgxODtzdHJva2Utd2lkdGg6MC41OyIgd2lkdGg9IjExMiIgeD0iNDE5IiB5PSI0MDAuNSIvPjxlbGxpcHNlIGN4PSI0NDEuNjUiIGN5PSI0MTYuNSIgZmlsbD0iI0I0QTdFNSIgcng9IjExIiByeT0iMTEiIHN0eWxlPSJzdHJva2U6IzE4MTgxODtzdHJva2Utd2lkdGg6MS4wOyIvPjxwYXRoIGQ9Ik00NDQuNzc1LDQyMi41IEw0NDQuNzc1LDQyMC43NSBMNDQyLjY1LDQyMC43NSBRNDQyLjY1LDQyMC43NSA0NDIuNjUsNDEyLjkzNzUgTDQ0NC43NzUsNDEyLjkzNzUgTDQ0NC43NzUsNDExLjE4NzUgTDQzOC43NzUsNDExLjE4NzUgTDQzOC43NzUsNDEyLjkzNzUgTDQ0MC45LDQxMi45Mzc1IFE0NDAuOSw0MTIuOTM3NSA0NDAuOSw0MjAuNzUgTDQzOC43NzUsNDIwLjc1IEw0MzguNzc1LDQyMi41IEw0NDQuNzc1LDQyMi41IFogIiBmaWxsPSIjMDAwMDAwIi8+PHRleHQgZmlsbD0iIzAwMDAwMCIgZm9udC1mYW1pbHk9InNhbnMtc2VyaWYiIGZvbnQtc2l6ZT0iMTQiIGZvbnQtc3R5bGU9Iml0YWxpYyIgbGVuZ3RoQWRqdXN0PSJzcGFjaW5nIiB0ZXh0TGVuZ3RoPSI2MyIgeD0iNDU3LjM1IiB5PSI0MjIuMjQyMiI+SURhdGFiYXNlPC90ZXh0PjxsaW5lIHN0eWxlPSJzdHJva2U6IzE4MTgxODtzdHJva2Utd2lkdGg6MC41OyIgeDE9IjQyMCIgeDI9IjUzMCIgeTE9IjQzMi41IiB5Mj0iNDMyLjUiLz48bGluZSBzdHlsZT0ic3Ryb2tlOiMxODE4MTg7c3Ryb2tlLXdpZHRoOjAuNTsiIHgxPSI0MjAiIHgyPSI1MzAiIHkxPSI0NDAuNSIgeTI9IjQ0MC41Ii8+PGVsbGlwc2UgY3g9IjQzMCIgY3k9IjQ1My40OTIyIiBmaWxsPSIjODRCRTg0IiByeD0iMyIgcnk9IjMiIHN0eWxlPSJzdHJva2U6IzAzODA0ODtzdHJva2Utd2lkdGg6MS4wOyIvPjx0ZXh0IGZpbGw9IiMwMDAwMDAiIGZvbnQtZmFtaWx5PSJzYW5zLXNlcmlmIiBmb250LXNpemU9IjE0IiBsZW5ndGhBZGp1c3Q9InNwYWNpbmciIHRleHRMZW5ndGg9Ijg2IiB4PSI0MzkiIHk9IjQ1Ny43MzQ0Ij51cGRhdGVEYXRhKCk8L3RleHQ+PC9nPjwhLS1jbGFzcyBDbG91ZERhdGFiYXNlLS0+PGcgaWQ9ImVsZW1fQ2xvdWREYXRhYmFzZSI+PHJlY3QgY29kZUxpbmU9IjI5IiBmaWxsPSIjRjFGMUYxIiBoZWlnaHQ9IjQ4IiBpZD0iQ2xvdWREYXRhYmFzZSIgcng9IjIuNSIgcnk9IjIuNSIgc3R5bGU9InN0cm9rZTojMTgxODE4O3N0cm9rZS13aWR0aDowLjU7IiB3aWR0aD0iMTIzIiB4PSI0MTYuNSIgeT0iNTMyIi8+PGVsbGlwc2UgY3g9IjQzMS41IiBjeT0iNTQ4IiBmaWxsPSIjQUREMUIyIiByeD0iMTEiIHJ5PSIxMSIgc3R5bGU9InN0cm9rZTojMTgxODE4O3N0cm9rZS13aWR0aDoxLjA7Ii8+PHBhdGggZD0iTTQyOS4xMjUsNTUyLjI1IEw0MjkuMTI1LDU1NCBMNDM0LjA2MjUsNTU0IEw0MzQuMDYyNSw1NTIuMjUgTDQyOS4xMjUsNTUyLjI1IFogTTQyOS44MTI1LDU1Mi45Mzc1IFE0MjkuODEyNSw1NTIuOTM3NSA0MjkuODEyNSw1NDMuNzUgTDQyOC4wNjI1LDU0My43NSBRNDI4LjA2MjUsNTQzLjc1IDQyOC4wNjI1LDU1Mi45Mzc1IEw0MjkuODEyNSw1NTIuOTM3NSBaIE00MzMuMzc1LDU1Mi45Mzc1IEw0MzUuMTI1LDU1Mi45Mzc1IFE0MzUuMTI1LDU1Mi45Mzc1IDQzNS4xMjUsNTUwLjEyNSBMNDMzLjM3NSw1NTAuMTI1IFE0MzMuMzc1LDU1MC4xMjUgNDMzLjM3NSw1NTIuOTM3NSBaIE00MzMuMzc1LDU0My43NSBRNDMzLjM3NSw1NDMuNzUgNDMzLjM3NSw1NDYuNTYyNSBMNDM1LjEyNSw1NDYuNTYyNSBRNDM1LjEyNSw1NDYuNTYyNSA0MzUuMTI1LDU0My43NSBMNDMzLjM3NSw1NDMuNzUgWiBNNDI5LjEyNSw1NDQuNDM3NSBMNDM0LjA2MjUsNTQ0LjQzNzUgTDQzNC4wNjI1LDU0Mi42ODc1IEw0MjkuMTI1LDU0Mi42ODc1IEw0MjkuMTI1LDU0NC40Mzc1IFogIiBmaWxsPSIjMDAwMDAwIi8+PHRleHQgZmlsbD0iIzAwMDAwMCIgZm9udC1mYW1pbHk9InNhbnMtc2VyaWYiIGZvbnQtc2l6ZT0iMTQiIGxlbmd0aEFkanVzdD0ic3BhY2luZyIgdGV4dExlbmd0aD0iOTEiIHg9IjQ0NS41IiB5PSI1NTMuNzQyMiI+Q2xvdWREYXRhYmFzZTwvdGV4dD48bGluZSBzdHlsZT0ic3Ryb2tlOiMxODE4MTg7c3Ryb2tlLXdpZHRoOjAuNTsiIHgxPSI0MTcuNSIgeDI9IjUzOC41IiB5MT0iNTY0IiB5Mj0iNTY0Ii8+PGxpbmUgc3R5bGU9InN0cm9rZTojMTgxODE4O3N0cm9rZS13aWR0aDowLjU7IiB4MT0iNDE3LjUiIHgyPSI1MzguNSIgeTE9IjU3MiIgeTI9IjU3MiIvPjwvZz48IS0tY2xhc3MgSU5vdGlmaWNhdGlvbi0tPjxnIGlkPSJlbGVtX0lOb3RpZmljYXRpb24iPjxyZWN0IGNvZGVMaW5lPSIzMiIgZmlsbD0iI0YxRjFGMSIgaGVpZ2h0PSI2Mi45ODQ0IiBpZD0iSU5vdGlmaWNhdGlvbiIgcng9IjIuNSIgcnk9IjIuNSIgc3R5bGU9InN0cm9rZTojMTgxODE4O3N0cm9rZS13aWR0aDowLjU7IiB3aWR0aD0iMTU0IiB4PSI1OTkiIHk9IjQwMC41Ii8+PGVsbGlwc2UgY3g9IjYyNy45NSIgY3k9IjQxNi41IiBmaWxsPSIjQjRBN0U1IiByeD0iMTEiIHJ5PSIxMSIgc3R5bGU9InN0cm9rZTojMTgxODE4O3N0cm9rZS13aWR0aDoxLjA7Ii8+PHBhdGggZD0iTTYzMS4wNzUsNDIyLjUgTDYzMS4wNzUsNDIwLjc1IEw2MjguOTUsNDIwLjc1IFE2MjguOTUsNDIwLjc1IDYyOC45NSw0MTIuOTM3NSBMNjMxLjA3NSw0MTIuOTM3NSBMNjMxLjA3NSw0MTEuMTg3NSBMNjI1LjA3NSw0MTEuMTg3NSBMNjI1LjA3NSw0MTIuOTM3NSBMNjI3LjIsNDEyLjkzNzUgUTYyNy4yLDQxMi45Mzc1IDYyNy4yLDQyMC43NSBMNjI1LjA3NSw0MjAuNzUgTDYyNS4wNzUsNDIyLjUgTDYzMS4wNzUsNDIyLjUgWiAiIGZpbGw9IiMwMDAwMDAiLz48dGV4dCBmaWxsPSIjMDAwMDAwIiBmb250LWZhbWlseT0ic2Fucy1zZXJpZiIgZm9udC1zaXplPSIxNCIgZm9udC1zdHlsZT0iaXRhbGljIiBsZW5ndGhBZGp1c3Q9InNwYWNpbmciIHRleHRMZW5ndGg9IjkxIiB4PSI2NDUuMDUiIHk9IjQyMi4yNDIyIj5JTm90aWZpY2F0aW9uPC90ZXh0PjxsaW5lIHN0eWxlPSJzdHJva2U6IzE4MTgxODtzdHJva2Utd2lkdGg6MC41OyIgeDE9IjYwMCIgeDI9Ijc1MiIgeTE9IjQzMi41IiB5Mj0iNDMyLjUiLz48bGluZSBzdHlsZT0ic3Ryb2tlOiMxODE4MTg7c3Ryb2tlLXdpZHRoOjAuNTsiIHgxPSI2MDAiIHgyPSI3NTIiIHkxPSI0NDAuNSIgeTI9IjQ0MC41Ii8+PGVsbGlwc2UgY3g9IjYxMCIgY3k9IjQ1My40OTIyIiBmaWxsPSIjODRCRTg0IiByeD0iMyIgcnk9IjMiIHN0eWxlPSJzdHJva2U6IzAzODA0ODtzdHJva2Utd2lkdGg6MS4wOyIvPjx0ZXh0IGZpbGw9IiMwMDAwMDAiIGZvbnQtZmFtaWx5PSJzYW5zLXNlcmlmIiBmb250LXNpemU9IjE0IiBsZW5ndGhBZGp1c3Q9InNwYWNpbmciIHRleHRMZW5ndGg9IjEyOCIgeD0iNjE5IiB5PSI0NTcuNzM0NCI+c2VuZE5vdGlmaWNhdGlvbigpPC90ZXh0PjwvZz48IS0tY2xhc3MgTm90aWZpY2F0aW9uU2VydmljZS0tPjxnIGlkPSJlbGVtX05vdGlmaWNhdGlvblNlcnZpY2UiPjxyZWN0IGNvZGVMaW5lPSIzNSIgZmlsbD0iI0YxRjFGMSIgaGVpZ2h0PSI0OCIgaWQ9Ik5vdGlmaWNhdGlvblNlcnZpY2UiIHJ4PSIyLjUiIHJ5PSIyLjUiIHN0eWxlPSJzdHJva2U6IzE4MTgxODtzdHJva2Utd2lkdGg6MC41OyIgd2lkdGg9IjE2NSIgeD0iNTk2LjUiIHk9IjUzMiIvPjxlbGxpcHNlIGN4PSI2MTEuNSIgY3k9IjU0OCIgZmlsbD0iI0FERDFCMiIgcng9IjExIiByeT0iMTEiIHN0eWxlPSJzdHJva2U6IzE4MTgxODtzdHJva2Utd2lkdGg6MS4wOyIvPjxwYXRoIGQ9Ik02MDkuMTI1LDU1Mi4yNSBMNjA5LjEyNSw1NTQgTDYxNC4wNjI1LDU1NCBMNjE0LjA2MjUsNTUyLjI1IEw2MDkuMTI1LDU1Mi4yNSBaIE02MDkuODEyNSw1NTIuOTM3NSBRNjA5LjgxMjUsNTUyLjkzNzUgNjA5LjgxMjUsNTQzLjc1IEw2MDguMDYyNSw1NDMuNzUgUTYwOC4wNjI1LDU0My43NSA2MDguMDYyNSw1NTIuOTM3NSBMNjA5LjgxMjUsNTUyLjkzNzUgWiBNNjEzLjM3NSw1NTIuOTM3NSBMNjE1LjEyNSw1NTIuOTM3NSBRNjE1LjEyNSw1NTIuOTM3NSA2MTUuMTI1LDU1MC4xMjUgTDYxMy4zNzUsNTUwLjEyNSBRNjEzLjM3NSw1NTAuMTI1IDYxMy4zNzUsNTUyLjkzNzUgWiBNNjEzLjM3NSw1NDMuNzUgUTYxMy4zNzUsNTQzLjc1IDYxMy4zNzUsNTQ2LjU2MjUgTDYxNS4xMjUsNTQ2LjU2MjUgUTYxNS4xMjUsNTQ2LjU2MjUgNjE1LjEyNSw1NDMuNzUgTDYxMy4zNzUsNTQzLjc1IFogTTYwOS4xMjUsNTQ0LjQzNzUgTDYxNC4wNjI1LDU0NC40Mzc1IEw2MTQuMDYyNSw1NDIuNjg3NSBMNjA5LjEyNSw1NDIuNjg3NSBMNjA5LjEyNSw1NDQuNDM3NSBaICIgZmlsbD0iIzAwMDAwMCIvPjx0ZXh0IGZpbGw9IiMwMDAwMDAiIGZvbnQtZmFtaWx5PSJzYW5zLXNlcmlmIiBmb250LXNpemU9IjE0IiBsZW5ndGhBZGp1c3Q9InNwYWNpbmciIHRleHRMZW5ndGg9IjEzMyIgeD0iNjI1LjUiIHk9IjU1My43NDIyIj5Ob3RpZmljYXRpb25TZXJ2aWNlPC90ZXh0PjxsaW5lIHN0eWxlPSJzdHJva2U6IzE4MTgxODtzdHJva2Utd2lkdGg6MC41OyIgeDE9IjU5Ny41IiB4Mj0iNzYwLjUiIHkxPSI1NjQiIHkyPSI1NjQiLz48bGluZSBzdHlsZT0ic3Ryb2tlOiMxODE4MTg7c3Ryb2tlLXdpZHRoOjAuNTsiIHgxPSI1OTcuNSIgeDI9Ijc2MC41IiB5MT0iNTcyIiB5Mj0iNTcyIi8+PC9nPjwhLS1jbGFzcyBJTW9iaWxlQXBwLS0+PGcgaWQ9ImVsZW1fSU1vYmlsZUFwcCI+PHJlY3QgY29kZUxpbmU9IjM4IiBmaWxsPSIjRjFGMUYxIiBoZWlnaHQ9IjYyLjk4NDQiIGlkPSJJTW9iaWxlQXBwIiByeD0iMi41IiByeT0iMi41IiBzdHlsZT0ic3Ryb2tlOiMxODE4MTg7c3Ryb2tlLXdpZHRoOjAuNTsiIHdpZHRoPSIxNzUiIHg9IjU4Ni41IiB5PSI2NjIiLz48ZWxsaXBzZSBjeD0iNjM0Ljc1IiBjeT0iNjc4IiBmaWxsPSIjQjRBN0U1IiByeD0iMTEiIHJ5PSIxMSIgc3R5bGU9InN0cm9rZTojMTgxODE4O3N0cm9rZS13aWR0aDoxLjA7Ii8+PHBhdGggZD0iTTYzNy44NzUsNjg0IEw2MzcuODc1LDY4Mi4yNSBMNjM1Ljc1LDY4Mi4yNSBRNjM1Ljc1LDY4Mi4yNSA2MzUuNzUsNjc0LjQzNzUgTDYzNy44NzUsNjc0LjQzNzUgTDYzNy44NzUsNjcyLjY4NzUgTDYzMS44NzUsNjcyLjY4NzUgTDYzMS44NzUsNjc0LjQzNzUgTDYzNCw2NzQuNDM3NSBRNjM0LDY3NC40Mzc1IDYzNCw2ODIuMjUgTDYzMS44NzUsNjgyLjI1IEw2MzEuODc1LDY4NCBMNjM3Ljg3NSw2ODQgWiAiIGZpbGw9IiMwMDAwMDAiLz48dGV4dCBmaWxsPSIjMDAwMDAwIiBmb250LWZhbWlseT0ic2Fucy1zZXJpZiIgZm9udC1zaXplPSIxNCIgZm9udC1zdHlsZT0iaXRhbGljIiBsZW5ndGhBZGp1c3Q9InNwYWNpbmciIHRleHRMZW5ndGg9IjcwIiB4PSI2NTUuMjUiIHk9IjY4My43NDIyIj5JTW9iaWxlQXBwPC90ZXh0PjxsaW5lIHN0eWxlPSJzdHJva2U6IzE4MTgxODtzdHJva2Utd2lkdGg6MC41OyIgeDE9IjU4Ny41IiB4Mj0iNzYwLjUiIHkxPSI2OTQiIHkyPSI2OTQiLz48bGluZSBzdHlsZT0ic3Ryb2tlOiMxODE4MTg7c3Ryb2tlLXdpZHRoOjAuNTsiIHgxPSI1ODcuNSIgeDI9Ijc2MC41IiB5MT0iNzAyIiB5Mj0iNzAyIi8+PGVsbGlwc2UgY3g9IjU5Ny41IiBjeT0iNzE0Ljk5MjIiIGZpbGw9IiM4NEJFODQiIHJ4PSIzIiByeT0iMyIgc3R5bGU9InN0cm9rZTojMDM4MDQ4O3N0cm9rZS13aWR0aDoxLjA7Ii8+PHRleHQgZmlsbD0iIzAwMDAwMCIgZm9udC1mYW1pbHk9InNhbnMtc2VyaWYiIGZvbnQtc2l6ZT0iMTQiIGxlbmd0aEFkanVzdD0ic3BhY2luZyIgdGV4dExlbmd0aD0iMTQ5IiB4PSI2MDYuNSIgeT0iNzE5LjIzNDQiPmRpc3BsYXlOb3RpZmljYXRpb24oKTwvdGV4dD48L2c+PCEtLWNsYXNzIE1vYmlsZUFwcC0tPjxnIGlkPSJlbGVtX01vYmlsZUFwcCI+PHJlY3QgY29kZUxpbmU9IjQxIiBmaWxsPSIjRjFGMUYxIiBoZWlnaHQ9IjQ4IiBpZD0iTW9iaWxlQXBwIiByeD0iMi41IiByeT0iMi41IiBzdHlsZT0ic3Ryb2tlOiMxODE4MTg7c3Ryb2tlLXdpZHRoOjAuNTsiIHdpZHRoPSI5NSIgeD0iNjI2LjUiIHk9Ijc4NiIvPjxlbGxpcHNlIGN4PSI2NDEuNSIgY3k9IjgwMiIgZmlsbD0iI0FERDFCMiIgcng9IjExIiByeT0iMTEiIHN0eWxlPSJzdHJva2U6IzE4MTgxODtzdHJva2Utd2lkdGg6MS4wOyIvPjxwYXRoIGQ9Ik02MzkuMTI1LDgwNi4yNSBMNjM5LjEyNSw4MDggTDY0NC4wNjI1LDgwOCBMNjQ0LjA2MjUsODA2LjI1IEw2MzkuMTI1LDgwNi4yNSBaIE02MzkuODEyNSw4MDYuOTM3NSBRNjM5LjgxMjUsODA2LjkzNzUgNjM5LjgxMjUsNzk3Ljc1IEw2MzguMDYyNSw3OTcuNzUgUTYzOC4wNjI1LDc5Ny43NSA2MzguMDYyNSw4MDYuOTM3NSBMNjM5LjgxMjUsODA2LjkzNzUgWiBNNjQzLjM3NSw4MDYuOTM3NSBMNjQ1LjEyNSw4MDYuOTM3NSBRNjQ1LjEyNSw4MDYuOTM3NSA2NDUuMTI1LDgwNC4xMjUgTDY0My4zNzUsODA0LjEyNSBRNjQzLjM3NSw4MDQuMTI1IDY0My4zNzUsODA2LjkzNzUgWiBNNjQzLjM3NSw3OTcuNzUgUTY0My4zNzUsNzk3Ljc1IDY0My4zNzUsODAwLjU2MjUgTDY0NS4xMjUsODAwLjU2MjUgUTY0NS4xMjUsODAwLjU2MjUgNjQ1LjEyNSw3OTcuNzUgTDY0My4zNzUsNzk3Ljc1IFogTTYzOS4xMjUsNzk4LjQzNzUgTDY0NC4wNjI1LDc5OC40Mzc1IEw2NDQuMDYyNSw3OTYuNjg3NSBMNjM5LjEyNSw3OTYuNjg3NSBMNjM5LjEyNSw3OTguNDM3NSBaICIgZmlsbD0iIzAwMDAwMCIvPjx0ZXh0IGZpbGw9IiMwMDAwMDAiIGZvbnQtZmFtaWx5PSJzYW5zLXNlcmlmIiBmb250LXNpemU9IjE0IiBsZW5ndGhBZGp1c3Q9InNwYWNpbmciIHRleHRMZW5ndGg9IjYzIiB4PSI2NTUuNSIgeT0iODA3Ljc0MjIiPk1vYmlsZUFwcDwvdGV4dD48bGluZSBzdHlsZT0ic3Ryb2tlOiMxODE4MTg7c3Ryb2tlLXdpZHRoOjAuNTsiIHgxPSI2MjcuNSIgeDI9IjcyMC41IiB5MT0iODE4IiB5Mj0iODE4Ii8+PGxpbmUgc3R5bGU9InN0cm9rZTojMTgxODE4O3N0cm9rZS13aWR0aDowLjU7IiB4MT0iNjI3LjUiIHgyPSI3MjAuNSIgeTE9IjgyNiIgeTI9IjgyNiIvPjwvZz48IS0tcmV2ZXJzZSBsaW5rIElTZW5zb3JEYXRhIHRvIE1vaXN0dXJlU2Vuc29yLS0+PGcgaWQ9ImxpbmtfSVNlbnNvckRhdGFfTW9pc3R1cmVTZW5zb3IiPjxwYXRoIGQ9Ik0xMTMsNDgxLjc5IEMxMTMsNTAyLjk2IDExMyw1MTIuNjQgMTEzLDUzMS45MyAiIGZpbGw9Im5vbmUiIGlkPSJJU2Vuc29yRGF0YS1iYWNrdG8tTW9pc3R1cmVTZW5zb3IiIHN0eWxlPSJzdHJva2U6IzE4MTgxODtzdHJva2Utd2lkdGg6MS4wO3N0cm9rZS1kYXNoYXJyYXk6Ny4wLDcuMDsiLz48cG9seWdvbiBmaWxsPSJub25lIiBwb2ludHM9IjExMyw0NjMuNzksMTA3LDQ4MS43OSwxMTksNDgxLjc5LDExMyw0NjMuNzkiIHN0eWxlPSJzdHJva2U6IzE4MTgxODtzdHJva2Utd2lkdGg6MS4wOyIvPjwvZz48IS0tcmV2ZXJzZSBsaW5rIElDb250cm9sbGVyIHRvIENlbnRyYWxDb250cm9sbGVyLS0+PGcgaWQ9ImxpbmtfSUNvbnRyb2xsZXJfQ2VudHJhbENvbnRyb2xsZXIiPjxwYXRoIGQ9Ik0yOTgsMjA2LjM2IEMyOTgsMjI3LjI1IDI5OCwyMzIuMTEgMjk4LDI0OC42NSAiIGZpbGw9Im5vbmUiIGlkPSJJQ29udHJvbGxlci1iYWNrdG8tQ2VudHJhbENvbnRyb2xsZXIiIHN0eWxlPSJzdHJva2U6IzE4MTgxODtzdHJva2Utd2lkdGg6MS4wO3N0cm9rZS1kYXNoYXJyYXk6Ny4wLDcuMDsiLz48cG9seWdvbiBmaWxsPSJub25lIiBwb2ludHM9IjI5OCwxODguMzYsMjkyLDIwNi4zNiwzMDQsMjA2LjM2LDI5OCwxODguMzYiIHN0eWxlPSJzdHJva2U6IzE4MTgxODtzdHJva2Utd2lkdGg6MS4wOyIvPjwvZz48IS0tbGluayBDZW50cmFsQ29udHJvbGxlciB0byBJU2Vuc29yRGF0YS0tPjxnIGlkPSJsaW5rX0NlbnRyYWxDb250cm9sbGVyX0lTZW5zb3JEYXRhIj48cGF0aCBjb2RlTGluZT0iMTYiIGQ9Ik0yMzIuOTEsMjk3LjAzIEMyMTQuODksMzA1LjM0IDE5Ni4xMywzMTUuOTYgMTgxLDMyOSBDMTU4LjEsMzQ4LjcyIDE0Mi41MjcsMzcyLjY2MzEgMTMwLjY1NywzOTQuNzgzMSAiIGZpbGw9Im5vbmUiIGlkPSJDZW50cmFsQ29udHJvbGxlci10by1JU2Vuc29yRGF0YSIgc3R5bGU9InN0cm9rZTojMTgxODE4O3N0cm9rZS13aWR0aDoxLjA7Ii8+PHBvbHlnb24gZmlsbD0iIzE4MTgxOCIgcG9pbnRzPSIxMjcuODIsNDAwLjA3LDEzNS42MDAyLDM5NC4wMzEsMTMwLjE4NDIsMzk1LjY2NDMsMTI4LjU1MSwzOTAuMjQ4MywxMjcuODIsNDAwLjA3IiBzdHlsZT0ic3Ryb2tlOiMxODE4MTg7c3Ryb2tlLXdpZHRoOjEuMDsiLz48dGV4dCBmaWxsPSIjMDAwMDAwIiBmb250LWZhbWlseT0ic2Fucy1zZXJpZiIgZm9udC1zaXplPSIxMyIgbGVuZ3RoQWRqdXN0PSJzcGFjaW5nIiB0ZXh0TGVuZ3RoPSIyOCIgeD0iMTgyIiB5PSIzNDIuMjg5MSI+dXNlczwvdGV4dD48L2c+PCEtLWxpbmsgQ2VudHJhbENvbnRyb2xsZXIgdG8gSVNlbnNvckRhdGEtLT48ZyBpZD0ibGlua19DZW50cmFsQ29udHJvbGxlcl9JU2Vuc29yRGF0YSI+PHBhdGggY29kZUxpbmU9IjQ0IiBkPSJNMjcwLjcsMjk3LjE3IEMyMzguNDQsMzI0LjU1IDE4OS4yMTQ0LDM2Ni4zMTc0IDE1My41NzQ0LDM5Ni41Njc0ICIgZmlsbD0ibm9uZSIgaWQ9IkNlbnRyYWxDb250cm9sbGVyLXRvLUlTZW5zb3JEYXRhLTEiIHN0eWxlPSJzdHJva2U6IzE4MTgxODtzdHJva2Utd2lkdGg6MS4wOyIvPjxwb2x5Z29uIGZpbGw9IiMxODE4MTgiIHBvaW50cz0iMTQ5LDQwMC40NSwxNTguNDUsMzk3LjY3NTcsMTUyLjgxMiwzOTcuMjE0NSwxNTMuMjczMiwzOTEuNTc2NSwxNDksNDAwLjQ1IiBzdHlsZT0ic3Ryb2tlOiMxODE4MTg7c3Ryb2tlLXdpZHRoOjEuMDsiLz48L2c+PCEtLXJldmVyc2UgbGluayBJVmFsdmVDb250cm9sIHRvIFdhdGVyVmFsdmUtLT48ZyBpZD0ibGlua19JVmFsdmVDb250cm9sX1dhdGVyVmFsdmUiPjxwYXRoIGQ9Ik0yOTgsNDg5LjI3IEMyOTgsNTA5LjExIDI5OCw1MTQuNyAyOTgsNTMxLjc4ICIgZmlsbD0ibm9uZSIgaWQ9IklWYWx2ZUNvbnRyb2wtYmFja3RvLVdhdGVyVmFsdmUiIHN0eWxlPSJzdHJva2U6IzE4MTgxODtzdHJva2Utd2lkdGg6MS4wO3N0cm9rZS1kYXNoYXJyYXk6Ny4wLDcuMDsiLz48cG9seWdvbiBmaWxsPSJub25lIiBwb2ludHM9IjI5OCw0NzEuMjcsMjkyLDQ4OS4yNywzMDQsNDg5LjI3LDI5OCw0NzEuMjciIHN0eWxlPSJzdHJva2U6IzE4MTgxODtzdHJva2Utd2lkdGg6MS4wOyIvPjwvZz48IS0tcmV2ZXJzZSBsaW5rIElEYXRhYmFzZSB0byBDbG91ZERhdGFiYXNlLS0+PGcgaWQ9ImxpbmtfSURhdGFiYXNlX0Nsb3VkRGF0YWJhc2UiPjxwYXRoIGQ9Ik00NzYuMjAyLDQ4MS43ODQ2IEM0NzYuNzIyLDUwMi45NTQ2IDQ3Ni45Niw1MTIuNjQgNDc3LjQzLDUzMS45MyAiIGZpbGw9Im5vbmUiIGlkPSJJRGF0YWJhc2UtYmFja3RvLUNsb3VkRGF0YWJhc2UiIHN0eWxlPSJzdHJva2U6IzE4MTgxODtzdHJva2Utd2lkdGg6MS4wO3N0cm9rZS1kYXNoYXJyYXk6Ny4wLDcuMDsiLz48cG9seWdvbiBmaWxsPSJub25lIiBwb2ludHM9IjQ3NS43Niw0NjMuNzksNDcwLjIwMzgsNDgxLjkzMTksNDgyLjIwMDIsNDgxLjYzNzIsNDc1Ljc2LDQ2My43OSIgc3R5bGU9InN0cm9rZTojMTgxODE4O3N0cm9rZS13aWR0aDoxLjA7Ii8+PC9nPjwhLS1yZXZlcnNlIGxpbmsgSU5vdGlmaWNhdGlvbiB0byBOb3RpZmljYXRpb25TZXJ2aWNlLS0+PGcgaWQ9ImxpbmtfSU5vdGlmaWNhdGlvbl9Ob3RpZmljYXRpb25TZXJ2aWNlIj48cGF0aCBkPSJNNjc3LjIwMiw0ODEuNzg0NiBDNjc3LjcyMiw1MDIuOTU0NiA2NzcuOTYsNTEyLjY0IDY3OC40Myw1MzEuOTMgIiBmaWxsPSJub25lIiBpZD0iSU5vdGlmaWNhdGlvbi1iYWNrdG8tTm90aWZpY2F0aW9uU2VydmljZSIgc3R5bGU9InN0cm9rZTojMTgxODE4O3N0cm9rZS13aWR0aDoxLjA7c3Ryb2tlLWRhc2hhcnJheTo3LjAsNy4wOyIvPjxwb2x5Z29uIGZpbGw9Im5vbmUiIHBvaW50cz0iNjc2Ljc2LDQ2My43OSw2NzEuMjAzOCw0ODEuOTMxOSw2ODMuMjAwMiw0ODEuNjM3Miw2NzYuNzYsNDYzLjc5IiBzdHlsZT0ic3Ryb2tlOiMxODE4MTg7c3Ryb2tlLXdpZHRoOjEuMDsiLz48L2c+PCEtLXJldmVyc2UgbGluayBJTW9iaWxlQXBwIHRvIE1vYmlsZUFwcC0tPjxnIGlkPSJsaW5rX0lNb2JpbGVBcHBfTW9iaWxlQXBwIj48cGF0aCBkPSJNNjc0LDc0My4xOCBDNjc0LDc2Mi4yNiA2NzQsNzY4LjQgNjc0LDc4NS44NiAiIGZpbGw9Im5vbmUiIGlkPSJJTW9iaWxlQXBwLWJhY2t0by1Nb2JpbGVBcHAiIHN0eWxlPSJzdHJva2U6IzE4MTgxODtzdHJva2Utd2lkdGg6MS4wO3N0cm9rZS1kYXNoYXJyYXk6Ny4wLDcuMDsiLz48cG9seWdvbiBmaWxsPSJub25lIiBwb2ludHM9IjY3NCw3MjUuMTgsNjY4LDc0My4xOCw2ODAsNzQzLjE4LDY3NCw3MjUuMTgiIHN0eWxlPSJzdHJva2U6IzE4MTgxODtzdHJva2Utd2lkdGg6MS4wOyIvPjwvZz48IS0tbGluayBDZW50cmFsQ29udHJvbGxlciB0byBJVmFsdmVDb250cm9sLS0+PGcgaWQ9ImxpbmtfQ2VudHJhbENvbnRyb2xsZXJfSVZhbHZlQ29udHJvbCI+PHBhdGggY29kZUxpbmU9IjQ1IiBkPSJNMjk4LDI5Ny4xNyBDMjk4LDMyMi4zMyAyOTgsMzU2LjkyIDI5OCwzODYuODIgIiBmaWxsPSJub25lIiBpZD0iQ2VudHJhbENvbnRyb2xsZXItdG8tSVZhbHZlQ29udHJvbCIgc3R5bGU9InN0cm9rZTojMTgxODE4O3N0cm9rZS13aWR0aDoxLjA7Ii8+PHBvbHlnb24gZmlsbD0iIzE4MTgxOCIgcG9pbnRzPSIyOTgsMzkyLjgyLDMwMiwzODMuODIsMjk4LDM4Ny44MiwyOTQsMzgzLjgyLDI5OCwzOTIuODIiIHN0eWxlPSJzdHJva2U6IzE4MTgxODtzdHJva2Utd2lkdGg6MS4wOyIvPjwvZz48IS0tbGluayBDZW50cmFsQ29udHJvbGxlciB0byBJRGF0YWJhc2UtLT48ZyBpZD0ibGlua19DZW50cmFsQ29udHJvbGxlcl9JRGF0YWJhc2UiPjxwYXRoIGNvZGVMaW5lPSI0NiIgZD0iTTMyNC4xMiwyOTcuMTcgQzM1NC45OSwzMjQuNTUgNDAxLjk3MTYsMzY2LjIxODMgNDM2LjA3MTYsMzk2LjQ2ODMgIiBmaWxsPSJub25lIiBpZD0iQ2VudHJhbENvbnRyb2xsZXItdG8tSURhdGFiYXNlIiBzdHlsZT0ic3Ryb2tlOiMxODE4MTg7c3Ryb2tlLXdpZHRoOjEuMDsiLz48cG9seWdvbiBmaWxsPSIjMTgxODE4IiBwb2ludHM9IjQ0MC41Niw0MDAuNDUsNDM2LjQ4MTgsMzkxLjQ4NTIsNDM2LjgxOTYsMzk3LjEzMTksNDMxLjE3MjksMzk3LjQ2OTgsNDQwLjU2LDQwMC40NSIgc3R5bGU9InN0cm9rZTojMTgxODE4O3N0cm9rZS13aWR0aDoxLjA7Ii8+PC9nPjwhLS1saW5rIENlbnRyYWxDb250cm9sbGVyIHRvIElOb3RpZmljYXRpb24tLT48ZyBpZD0ibGlua19DZW50cmFsQ29udHJvbGxlcl9JTm90aWZpY2F0aW9uIj48cGF0aCBjb2RlTGluZT0iNDciIGQ9Ik0zNzMuNzgsMjkwLjc3IEM0MjYuMzUsMzAzLjg3IDQ5Ny4yLDMyNC40NyA1NTYsMzUyIEM1ODQuMjQsMzY1LjIyIDYwOC42MjkyLDM4MC44ODAzIDYzMS4xODkyLDM5Ny4wMTAzICIgZmlsbD0ibm9uZSIgaWQ9IkNlbnRyYWxDb250cm9sbGVyLXRvLUlOb3RpZmljYXRpb24iIHN0eWxlPSJzdHJva2U6IzE4MTgxODtzdHJva2Utd2lkdGg6MS4wOyIvPjxwb2x5Z29uIGZpbGw9IiMxODE4MTgiIHBvaW50cz0iNjM2LjA3LDQwMC41LDYzMS4wNzUzLDM5Mi4wMTE2LDYzMi4wMDI3LDM5Ny41OTE5LDYyNi40MjI0LDM5OC41MTkzLDYzNi4wNyw0MDAuNSIgc3R5bGU9InN0cm9rZTojMTgxODE4O3N0cm9rZS13aWR0aDoxLjA7Ii8+PC9nPjwhLS1saW5rIE5vdGlmaWNhdGlvblNlcnZpY2UgdG8gSU1vYmlsZUFwcC0tPjxnIGlkPSJsaW5rX05vdGlmaWNhdGlvblNlcnZpY2VfSU1vYmlsZUFwcCI+PHBhdGggY29kZUxpbmU9IjQ4IiBkPSJNNjc4LjE0LDU4MC4yOSBDNjc3LjMxLDYwMi44NCA2NzYuMjYwNSw2MzEuMTU0MSA2NzUuMzUwNSw2NTUuOTA0MSAiIGZpbGw9Im5vbmUiIGlkPSJOb3RpZmljYXRpb25TZXJ2aWNlLXRvLUlNb2JpbGVBcHAiIHN0eWxlPSJzdHJva2U6IzE4MTgxODtzdHJva2Utd2lkdGg6MS4wOyIvPjxwb2x5Z29uIGZpbGw9IiMxODE4MTgiIHBvaW50cz0iNjc1LjEzLDY2MS45LDY3OS40NTgsNjUzLjA1Myw2NzUuMzEzNyw2NTYuOTAzNCw2NzEuNDYzNCw2NTIuNzU5MSw2NzUuMTMsNjYxLjkiIHN0eWxlPSJzdHJva2U6IzE4MTgxODtzdHJva2Utd2lkdGg6MS4wOyIvPjwvZz48IS0tU1JDPVtaUDkxUmlDVzQ0TnRFR05BZ2JNTDJ0SEhnS2V0TVFJQVBBYlRKXzM0R2lNMDYxbWZpZEJ0bmRRMkNTUHNNRGR5Rl8zYzNtUnU3bko4cmJhOXJoNlRqUTgwOXhIWXNPS1NiY2pNaHpYajZVejNIVGdvR19WX2E5aWJiNER4MGV2aXJ2Yy1tNDZXRC1rakdEVUJCd3pVbEZlbEJlNjh4UktXTHJjeU5vVEE4eDU0dklXeVZETE5VaHdqTGl2Z0FONjlDSjE2WkNQZ1phSDlwalAwZ0ZBakJhakdFU0xRUE45bXM1R1RXSjFMLVFzVEUwZFVmYW1wNE1ubHhMZ0cwTVVPR2hfam95TzVjeXQ3TzFabGgyQWFMNm1fOEMtdWE1WmhrUHlVUHdPRGdiUUZFLVBJNHlQQXRFaGxCSkJSOE9HelhYVWNlMXlmQnQxeE1wcXJnaGFmSTV0Yl9lSUd4aDZQOFdqZGw0MHRpRFJwcHNNNkN4SGJRQy0yM3NiM0ZLTXlycVNYYU5xUWl5M1I2SGpWMTlpQkNYOGtKX0JzbnVJS1ZsVUVrN2hnTlMtdkhjemVtWlVPdmVIZGI2NGd6RFJQenQ3ejFtMDBdLS0+PC9nPjwvc3ZnPg==;" vertex="1" parent="1">
            <mxGeometry x="-66" y="701" width="809" height="881" as="geometry" />
          </mxCell>
        </UserObject>
        <mxCell id="z6YAalE3nsvfvBGPq8PH-8" value="" style="group" vertex="1" connectable="0" parent="1">
          <mxGeometry x="910" y="760" width="576" height="815" as="geometry" />
        </mxCell>
        <mxCell id="z6YAalE3nsvfvBGPq8PH-9" value="" style="shape=folder;fontStyle=1;spacingTop=10;tabWidth=136;tabHeight=26;tabPosition=left;html=1;whiteSpace=wrap;" vertex="1" parent="z6YAalE3nsvfvBGPq8PH-8">
          <mxGeometry x="10.33" width="565.67" height="815" as="geometry" />
        </mxCell>
        <mxCell id="z6YAalE3nsvfvBGPq8PH-10" value="Smart Irritation System" style="text;html=1;align=center;verticalAlign=middle;resizable=0;points=[];autosize=1;strokeColor=none;fillColor=none;" vertex="1" parent="z6YAalE3nsvfvBGPq8PH-8">
          <mxGeometry x="7.212880143112702" width="140" height="26" as="geometry" />
        </mxCell>
        <mxCell id="z6YAalE3nsvfvBGPq8PH-11" value="" style="group" vertex="1" connectable="0" parent="z6YAalE3nsvfvBGPq8PH-8">
          <mxGeometry x="178.26" y="51" width="198.87" height="105" as="geometry" />
        </mxCell>
        <mxCell id="z6YAalE3nsvfvBGPq8PH-12" value="" style="shape=folder;fontStyle=1;spacingTop=10;tabWidth=107;tabHeight=25;tabPosition=left;html=1;whiteSpace=wrap;" vertex="1" parent="z6YAalE3nsvfvBGPq8PH-11">
          <mxGeometry width="198.87" height="105" as="geometry" />
        </mxCell>
        <mxCell id="z6YAalE3nsvfvBGPq8PH-13" value="Sensore Package" style="text;html=1;align=center;verticalAlign=middle;resizable=0;points=[];autosize=1;strokeColor=none;fillColor=none;" vertex="1" parent="z6YAalE3nsvfvBGPq8PH-11">
          <mxGeometry x="-4.121658031088083" width="113" height="26" as="geometry" />
        </mxCell>
        <mxCell id="z6YAalE3nsvfvBGPq8PH-14" value="&lt;p style=&quot;margin:0px;margin-top:4px;text-align:center;&quot;&gt;&lt;b&gt;MoistureSenso&lt;/b&gt;&lt;/p&gt;&lt;hr size=&quot;1&quot; style=&quot;border-style:solid;&quot;&gt;&lt;p style=&quot;margin:0px;margin-left:4px;&quot;&gt;&lt;br&gt;&lt;/p&gt;" style="verticalAlign=top;align=left;overflow=fill;html=1;whiteSpace=wrap;" vertex="1" parent="z6YAalE3nsvfvBGPq8PH-11">
          <mxGeometry x="17.001839378238344" y="38.87096774193549" width="164.86632124352332" height="44.03225806451613" as="geometry" />
        </mxCell>
        <mxCell id="z6YAalE3nsvfvBGPq8PH-15" value="" style="group" vertex="1" connectable="0" parent="z6YAalE3nsvfvBGPq8PH-8">
          <mxGeometry x="178.26118067978535" y="201" width="232.87298747763867" height="196" as="geometry" />
        </mxCell>
        <mxCell id="z6YAalE3nsvfvBGPq8PH-16" value="" style="shape=folder;fontStyle=1;spacingTop=10;tabWidth=112;tabHeight=25;tabPosition=left;html=1;whiteSpace=wrap;" vertex="1" parent="z6YAalE3nsvfvBGPq8PH-15">
          <mxGeometry width="232.87" height="183" as="geometry" />
        </mxCell>
        <mxCell id="z6YAalE3nsvfvBGPq8PH-17" value="Controller Package" style="text;html=1;align=center;verticalAlign=middle;resizable=0;points=[];autosize=1;strokeColor=none;fillColor=none;" vertex="1" parent="z6YAalE3nsvfvBGPq8PH-15">
          <mxGeometry x="-4.650198819134836" width="120" height="26" as="geometry" />
        </mxCell>
        <mxCell id="z6YAalE3nsvfvBGPq8PH-18" value="&lt;p style=&quot;margin:0px;margin-top:4px;text-align:center;&quot;&gt;&lt;b&gt;CentralController&lt;/b&gt;&lt;/p&gt;&lt;hr size=&quot;1&quot; style=&quot;border-style:solid;&quot;&gt;&lt;p style=&quot;margin: 0px 0px 0px 4px;&quot;&gt;+processSensorData()&lt;/p&gt;&lt;p style=&quot;margin: 0px 0px 0px 4px;&quot;&gt;+sendCommands()&lt;/p&gt;&lt;p style=&quot;margin: 0px 0px 0px 4px;&quot;&gt;+updateDatabase()&lt;/p&gt;&lt;p style=&quot;margin: 0px 0px 0px 4px;&quot;&gt;+sendNotifications()&lt;/p&gt;" style="verticalAlign=top;align=left;overflow=fill;html=1;whiteSpace=wrap;" vertex="1" parent="z6YAalE3nsvfvBGPq8PH-15">
          <mxGeometry x="19.907549194991056" y="58" width="193.05788908765655" height="100" as="geometry" />
        </mxCell>
        <mxCell id="z6YAalE3nsvfvBGPq8PH-19" value="" style="group" vertex="1" connectable="0" parent="z6YAalE3nsvfvBGPq8PH-8">
          <mxGeometry x="35.03398926654741" y="555" width="160.74418604651163" height="101" as="geometry" />
        </mxCell>
        <mxCell id="z6YAalE3nsvfvBGPq8PH-20" value="" style="shape=folder;fontStyle=1;spacingTop=10;tabWidth=107;tabHeight=25;tabPosition=left;html=1;whiteSpace=wrap;" vertex="1" parent="z6YAalE3nsvfvBGPq8PH-19">
          <mxGeometry width="160.74418604651163" height="100.99999999999999" as="geometry" />
        </mxCell>
        <mxCell id="z6YAalE3nsvfvBGPq8PH-21" value="Valve Package" style="text;html=1;align=center;verticalAlign=middle;resizable=0;points=[];autosize=1;strokeColor=none;fillColor=none;" vertex="1" parent="z6YAalE3nsvfvBGPq8PH-19">
          <mxGeometry x="5.152057245080501" width="97" height="26" as="geometry" />
        </mxCell>
        <mxCell id="z6YAalE3nsvfvBGPq8PH-22" value="&lt;p style=&quot;margin:0px;margin-top:4px;text-align:center;&quot;&gt;&lt;b&gt;WaterValve&lt;/b&gt;&lt;br&gt;&lt;/p&gt;&lt;hr size=&quot;1&quot; style=&quot;border-style:solid;&quot;&gt;&lt;p style=&quot;margin:0px;margin-left:4px;&quot;&gt;&lt;br&gt;&lt;/p&gt;" style="verticalAlign=top;align=left;overflow=fill;html=1;whiteSpace=wrap;" vertex="1" parent="z6YAalE3nsvfvBGPq8PH-19">
          <mxGeometry x="13.742378599831305" y="47.58064516129032" width="133.25942884684903" height="42.35483870967741" as="geometry" />
        </mxCell>
        <mxCell id="z6YAalE3nsvfvBGPq8PH-23" value="" style="group" vertex="1" connectable="0" parent="z6YAalE3nsvfvBGPq8PH-8">
          <mxGeometry x="212.79026833631485" y="555" width="160.74418604651163" height="101" as="geometry" />
        </mxCell>
        <mxCell id="z6YAalE3nsvfvBGPq8PH-24" value="" style="shape=folder;fontStyle=1;spacingTop=10;tabWidth=120;tabHeight=25;tabPosition=left;html=1;whiteSpace=wrap;" vertex="1" parent="z6YAalE3nsvfvBGPq8PH-23">
          <mxGeometry width="160.74418604651163" height="100.99999999999999" as="geometry" />
        </mxCell>
        <mxCell id="z6YAalE3nsvfvBGPq8PH-25" value="Database Package" style="text;html=1;align=center;verticalAlign=middle;resizable=0;points=[];autosize=1;strokeColor=none;fillColor=none;" vertex="1" parent="z6YAalE3nsvfvBGPq8PH-23">
          <mxGeometry width="119" height="26" as="geometry" />
        </mxCell>
        <mxCell id="z6YAalE3nsvfvBGPq8PH-26" value="&lt;p style=&quot;margin:0px;margin-top:4px;text-align:center;&quot;&gt;&lt;b&gt;CloudDatabase&lt;/b&gt;&lt;br&gt;&lt;/p&gt;&lt;hr size=&quot;1&quot; style=&quot;border-style:solid;&quot;&gt;&lt;p style=&quot;margin:0px;margin-left:4px;&quot;&gt;&lt;br&gt;&lt;/p&gt;" style="verticalAlign=top;align=left;overflow=fill;html=1;whiteSpace=wrap;" vertex="1" parent="z6YAalE3nsvfvBGPq8PH-23">
          <mxGeometry x="13.742378599831305" y="48.58064516129032" width="133.25942884684903" height="42.35483870967741" as="geometry" />
        </mxCell>
        <mxCell id="z6YAalE3nsvfvBGPq8PH-27" value="" style="group" vertex="1" connectable="0" parent="z6YAalE3nsvfvBGPq8PH-8">
          <mxGeometry x="388.4651162790698" y="555" width="160.74418604651163" height="101" as="geometry" />
        </mxCell>
        <mxCell id="z6YAalE3nsvfvBGPq8PH-28" value="" style="shape=folder;fontStyle=1;spacingTop=10;tabWidth=125;tabHeight=25;tabPosition=left;html=1;whiteSpace=wrap;" vertex="1" parent="z6YAalE3nsvfvBGPq8PH-27">
          <mxGeometry width="160.74418604651163" height="100.99999999999999" as="geometry" />
        </mxCell>
        <mxCell id="z6YAalE3nsvfvBGPq8PH-29" value="Notification Package" style="text;html=1;align=center;verticalAlign=middle;resizable=0;points=[];autosize=1;strokeColor=none;fillColor=none;" vertex="1" parent="z6YAalE3nsvfvBGPq8PH-27">
          <mxGeometry x="-2.0608228980322005" width="127" height="26" as="geometry" />
        </mxCell>
        <mxCell id="z6YAalE3nsvfvBGPq8PH-30" value="&lt;p style=&quot;margin:0px;margin-top:4px;text-align:center;&quot;&gt;&lt;b&gt;NotificationService&lt;/b&gt;&lt;br&gt;&lt;/p&gt;&lt;hr size=&quot;1&quot; style=&quot;border-style:solid;&quot;&gt;&lt;p style=&quot;margin:0px;margin-left:4px;&quot;&gt;&lt;br&gt;&lt;/p&gt;" style="verticalAlign=top;align=left;overflow=fill;html=1;whiteSpace=wrap;" vertex="1" parent="z6YAalE3nsvfvBGPq8PH-27">
          <mxGeometry x="13.742378599831305" y="46.58064516129032" width="133.25942884684903" height="42.35483870967741" as="geometry" />
        </mxCell>
        <mxCell id="z6YAalE3nsvfvBGPq8PH-31" value="" style="group" vertex="1" connectable="0" parent="z6YAalE3nsvfvBGPq8PH-8">
          <mxGeometry x="388.4651162790698" y="691" width="160.74418604651163" height="110" as="geometry" />
        </mxCell>
        <mxCell id="z6YAalE3nsvfvBGPq8PH-32" value="" style="shape=folder;fontStyle=1;spacingTop=10;tabWidth=118;tabHeight=26;tabPosition=left;html=1;whiteSpace=wrap;" vertex="1" parent="z6YAalE3nsvfvBGPq8PH-31">
          <mxGeometry width="160.74418604651163" height="109.99999999999999" as="geometry" />
        </mxCell>
        <mxCell id="z6YAalE3nsvfvBGPq8PH-33" value="Mobile App Package" style="text;html=1;align=center;verticalAlign=middle;resizable=0;points=[];autosize=1;strokeColor=none;fillColor=none;" vertex="1" parent="z6YAalE3nsvfvBGPq8PH-31">
          <mxGeometry x="-5.152057245080501" width="127" height="26" as="geometry" />
        </mxCell>
        <mxCell id="z6YAalE3nsvfvBGPq8PH-34" value="&lt;p style=&quot;margin:0px;margin-top:4px;text-align:center;&quot;&gt;&lt;b&gt;MobileApp&lt;/b&gt;&lt;br&gt;&lt;/p&gt;&lt;hr size=&quot;1&quot; style=&quot;border-style:solid;&quot;&gt;&lt;p style=&quot;margin:0px;margin-left:4px;&quot;&gt;&lt;br&gt;&lt;/p&gt;" style="verticalAlign=top;align=left;overflow=fill;html=1;whiteSpace=wrap;" vertex="1" parent="z6YAalE3nsvfvBGPq8PH-31">
          <mxGeometry x="13.742378599831305" y="48.00387096774193" width="133.25942884684903" height="46.129032258064505" as="geometry" />
        </mxCell>
      </root>
    </mxGraphModel>
  </diagram>
</mxfile>
